<svg width="51" height="52" viewBox="0 0 51 52" fill="none" xmlns="http://www.w3.org/2000/svg">
    <path d="M17.0947 0.0404464C17.7725 0.343776 18.0557 0.879655 18.1366 1.61776C18.4199 4.11517 20.524 6.15759 23.0226 6.40025C23.6194 6.46092 24.105 6.65302 24.368 7.22935C24.631 7.80567 24.4489 8.31122 24.0645 8.76622C23.9027 8.95832 23.7711 9.17065 23.5688 9.45376C25.8145 9.04932 27.9591 9.0291 30.1037 9.41332C32.228 9.79754 34.2107 10.5559 36.1226 11.7085C36.1327 11.4557 36.1529 11.2839 36.1529 11.1019C36.1529 9.05944 36.1529 7.02713 36.1529 4.98472C36.163 2.37608 37.8018 0.738106 40.4319 0.738106C41.747 0.738106 43.062 0.738106 44.3771 0.738106C46.6531 0.748217 48.3425 2.35586 48.4234 4.64094C48.4639 5.60148 48.4437 6.56202 48.4335 7.52257C48.4234 8.07867 48.1301 8.41233 47.6749 8.41233C47.2196 8.41233 46.9263 8.08878 46.9162 7.53268C46.9061 6.64291 46.9162 5.74303 46.9162 4.85327C46.9061 3.24562 45.8945 2.25475 44.2759 2.24464C42.9912 2.24464 41.7166 2.24464 40.4319 2.24464C38.6212 2.24464 37.6703 3.19507 37.6703 5.02516C37.6703 9.50432 37.6602 13.9936 37.6804 18.4728C37.6804 18.9682 37.5691 19.3726 37.2454 19.767C35.6168 21.8195 35.465 24.7416 36.8206 26.966C38.1963 29.2106 40.9478 30.4239 43.5274 29.9083C46.1069 29.4027 48.1402 27.3199 48.5752 24.7416C48.8887 22.8811 48.4639 21.1926 47.3006 19.7063C47.0274 19.3524 46.906 18.9985 46.906 18.5536C46.9162 16.2281 46.9162 13.9026 46.9162 11.5771C46.9162 11.4052 46.9061 11.2333 46.9364 11.0715C46.987 10.6873 47.2399 10.4649 47.6142 10.4345C47.9884 10.4042 48.2717 10.5862 48.3728 10.9603C48.4234 11.1524 48.4335 11.3546 48.4335 11.5568C48.4335 13.7813 48.4234 16.0057 48.4437 18.2301C48.4437 18.493 48.5448 18.7963 48.6966 19.0086C51.9235 23.4575 49.6778 29.8274 44.3569 31.2429C44.0028 31.3339 43.8308 31.4856 43.7196 31.8395C42.4247 35.9748 39.9261 39.2003 36.2844 41.5258C35.9911 41.7179 35.8899 41.91 35.8899 42.2538C35.9101 43.6187 35.9203 44.9837 35.8899 46.3487C35.8596 47.7642 34.8075 48.8967 33.4419 49.0585C32.0358 49.2202 30.7308 48.381 30.4071 47.0363C30.2756 46.47 30.306 45.8634 30.2655 45.2769C30.2352 44.7714 29.9722 44.4175 29.5271 44.2153C29.0516 44.003 28.5458 44.0535 28.212 44.4175C27.9591 44.6905 27.7669 45.1051 27.7365 45.4691C27.6759 46.4296 27.7163 47.3901 27.7163 48.3507C27.7163 50.3425 27.2308 51.0604 25.3897 51.7682C25.0559 51.7682 24.7119 51.7682 24.3781 51.7682C24.3376 51.7379 24.2972 51.6974 24.2567 51.6873C22.8 51.2121 22.1122 50.292 22.102 48.7652C22.0919 47.1778 22.0919 45.6005 22.1121 44.0131C22.1121 43.639 21.9908 43.4873 21.6367 43.3862C19.9878 42.9009 18.4806 42.1324 17.0643 41.1719C16.5687 40.8382 16.4473 40.4136 16.7002 40.0294C16.9531 39.6451 17.3881 39.635 17.904 39.908C19.0673 40.5349 20.261 41.1315 21.4445 41.728C21.6165 41.819 21.8188 41.8493 22.102 41.9403C22.102 41.2528 22.102 40.6158 22.102 39.9889C22.102 39.7058 22.0919 39.4126 22.1324 39.1295C22.1931 38.725 22.4763 38.5127 22.8809 38.5228C23.2654 38.5329 23.5182 38.7453 23.5789 39.1295C23.6194 39.3216 23.6093 39.5339 23.6093 39.7361C23.6093 42.638 23.6093 45.5297 23.6093 48.4316C23.6093 48.5832 23.6093 48.7349 23.6093 48.8866C23.6498 49.7157 24.1859 50.2718 24.9244 50.2515C25.6628 50.2313 26.1787 49.6651 26.1787 48.8259C26.1888 47.6935 26.1787 46.5712 26.1787 45.4387C26.1888 43.8412 27.4027 42.6077 28.9808 42.5874C30.5083 42.5672 31.7222 43.7805 31.7728 45.3781C31.7829 45.7016 31.7627 46.015 31.793 46.3386C31.8638 47.0767 32.3898 47.5721 33.0878 47.562C33.7959 47.5519 34.3422 47.016 34.3624 46.2577C34.3826 44.9736 34.3725 43.6996 34.3725 42.4155C34.3725 42.2133 34.3928 42.0111 34.3725 41.8089C34.2815 41.1517 34.5951 40.7978 35.1312 40.4237C36.2844 39.6148 37.3567 38.6947 38.4695 37.8252C38.7325 37.6229 38.783 37.4005 38.6414 37.0871C38.3481 36.4096 38.0952 35.712 37.822 35.0244C37.3466 33.8313 36.507 33.0123 35.3032 32.5573C33.806 31.9911 32.319 31.4148 30.8219 30.8385C29.3551 30.2723 28.7279 29.2409 28.9302 27.6737C29.0213 26.9761 29.1224 26.2683 29.2438 25.5707C29.4562 24.2461 30.4476 23.3564 31.793 23.2451C32.6427 23.1744 33.5026 23.0935 34.3827 23.0126C34.5344 21.6678 34.8884 20.4039 35.6775 19.3221C36.0518 18.8064 36.163 18.2908 36.1529 17.6841C36.1226 16.4202 36.1529 15.1564 36.1327 13.8925C36.1327 13.7004 36.0113 13.4274 35.8495 13.3263C30.9837 10.2121 25.8651 9.78743 20.5139 11.9411C20.4329 11.9714 20.3722 12.022 20.3722 12.022C21.9503 12.8814 23.5486 13.7813 25.1671 14.6407C26.4114 15.308 26.9981 16.2989 26.9475 17.7144C26.9071 18.8064 26.9475 19.9085 26.9374 21.0005C26.9273 22.2947 26.3203 23.2148 25.1368 23.7406C23.2654 24.5798 21.3737 25.3988 19.5023 26.2279C18.7132 26.5716 18.6121 26.9862 19.1381 27.6737C20.0081 28.8062 20.8881 29.9386 21.7581 31.0811C22.7191 32.345 22.5572 33.9021 21.3939 34.802C20.261 35.6816 18.7031 35.439 17.732 34.2256C16.8216 33.0831 15.9213 31.9203 15.0108 30.7778C14.5961 30.252 14.323 30.2824 13.9993 30.8789C13.5744 31.6575 13.1596 32.4562 12.7145 33.2247C12.5527 33.5078 12.5223 33.7403 12.7044 34.0133C13.4935 35.1457 14.2825 36.2681 15.0513 37.4106C15.2132 37.6432 15.375 37.9465 15.3548 38.2094C15.3447 38.4116 15.0715 38.7351 14.8793 38.7655C14.6062 38.8059 14.2218 38.6947 14.0397 38.5026C12.8562 37.2691 11.9053 35.8535 11.1668 34.3167C9.58876 31.0306 9.08296 27.5928 9.6191 23.9832C9.63933 23.8619 9.64945 23.7507 9.65957 23.6293C9.65957 23.599 9.64945 23.5687 9.62921 23.4372C9.29539 23.6698 8.97169 23.872 8.67834 24.1046C8.23324 24.4584 7.75779 24.5899 7.22165 24.3674C6.68551 24.145 6.45284 23.7102 6.39215 23.144C6.09879 20.4039 4.08574 18.3919 1.36459 18.0986C0.7981 18.038 0.363124 17.8155 0.13046 17.2797C-0.102204 16.7438 0.00907025 16.2584 0.383356 15.8237C2.12328 13.7711 2.11316 10.6873 0.363117 8.61455C-0.39557 7.71467 0.100113 6.51147 1.2432 6.39014C2.36606 6.26881 3.36752 5.90481 4.26782 5.22738C4.58142 4.98471 4.96582 4.92405 5.22883 5.21727C5.4008 5.40938 5.47161 5.75315 5.4615 6.02614C5.45138 6.19803 5.22883 6.38003 5.06698 6.51147C4.20713 7.16868 3.24613 7.58323 2.18397 7.78545C2.05246 7.80567 1.92096 7.84612 1.74899 7.88656C3.69123 10.7884 3.69123 13.6802 1.75911 16.5921C5.17826 17.2695 7.23176 19.312 7.89941 22.6789C8.60752 22.3351 9.29539 22.0015 9.98327 21.6678C10.0642 21.6274 10.1552 21.5465 10.1856 21.4656C10.5599 20.4949 10.9342 19.5243 11.2983 18.5638C7.48466 17.8257 5.74475 14.6508 5.89648 11.8501C6.05834 8.95832 8.41531 6.41036 11.2477 5.94526C13.9487 5.51049 17.6915 7.02713 18.5716 11.1423C19.5427 10.748 20.5341 10.3637 21.5052 9.95931C21.6165 9.91887 21.7176 9.80765 21.7783 9.69643C22.0919 9.10999 22.3954 8.50333 22.709 7.88656C19.3505 7.21924 17.2869 5.18693 16.599 1.7492C13.7059 3.6804 10.8128 3.69051 7.89941 1.7492C7.78814 2.19409 7.6971 2.61874 7.57571 3.03329C7.41385 3.56917 7.03956 3.79162 6.59447 3.66017C6.14937 3.52873 5.98752 3.14451 6.10891 2.59852C6.22019 2.14353 6.32134 1.67842 6.38204 1.21332C6.47308 0.586437 6.8676 0.242663 7.39362 0C7.62628 0 7.86906 0 8.10173 0C8.39509 0.21233 8.69857 0.424666 8.99192 0.636996C10.9342 2.03231 13.6149 2.02219 15.5369 0.606658C15.8201 0.404439 16.1135 0.202223 16.3967 0.0101147C16.6193 0.0404476 16.862 0.0404464 17.0947 0.0404464ZM11.6524 31.7485C11.703 31.7485 11.7535 31.7383 11.794 31.7383C12.0874 31.1924 12.3807 30.6464 12.6842 30.1004C13.4834 28.6646 15.1019 28.5332 16.1236 29.8173C17.0441 30.98 17.9545 32.1529 18.8751 33.3056C19.3404 33.892 19.9676 34.0133 20.4531 33.619C20.9488 33.2247 20.9691 32.618 20.5139 32.0113C19.6439 30.8688 18.7739 29.7364 17.8939 28.6039C16.7912 27.1682 17.1857 25.6212 18.8245 24.8932C20.706 24.0641 22.5775 23.235 24.459 22.4059C25.0154 22.1633 25.3897 21.7892 25.3897 21.1522C25.3998 19.8681 25.3998 18.5941 25.3897 17.31C25.3897 16.855 25.1975 16.4809 24.8131 16.2483C22.881 15.0957 20.9589 13.9026 18.784 13.2252C18.5716 13.1544 18.2378 13.1948 18.0557 13.3162C17.3375 13.8217 16.6193 14.3273 15.9921 14.9238C12.0368 18.7154 10.4385 23.3665 11.0454 28.7859C11.1668 29.8072 11.4501 30.7778 11.6524 31.7485ZM7.3835 12.2646C7.37339 14.762 9.2954 16.8954 11.7637 17.1078C11.9559 17.128 12.2492 17.0269 12.3504 16.8853C13.5845 15.1058 15.0614 13.5892 16.8216 12.3253C16.9531 12.2343 17.0542 11.9916 17.0441 11.84C16.8317 9.31221 14.5961 7.35068 12.0671 7.44168C9.46737 7.53268 7.39362 9.67621 7.3835 12.2646ZM42.1718 31.6271C37.8524 31.1822 35.2728 28.8567 34.3624 24.5798C33.452 24.6708 32.5112 24.7416 31.5907 24.8831C31.1152 24.9539 30.8421 25.328 30.7612 25.8032C30.6398 26.5009 30.5386 27.1985 30.4476 27.8962C30.3363 28.8062 30.5488 29.1499 31.3985 29.4735C32.8754 30.0397 34.3422 30.616 35.8191 31.1721C37.4781 31.799 38.6212 32.9314 39.2585 34.5795C39.4507 35.0952 39.6631 35.6007 39.8755 36.1265C40.7354 35.166 41.9796 32.7292 42.1718 31.6271Z" fill="#6BB2E2"/>
    <path d="M44.9839 13.1848C44.9839 15.4396 44.9738 17.7044 44.994 19.9592C44.994 20.2221 45.1357 20.5456 45.3076 20.7377C46.5418 22.0825 46.8351 23.953 46.0258 25.5708C45.2166 27.1784 43.5576 28.0581 41.7165 27.8457C40.0474 27.6536 38.6008 26.3594 38.1962 24.6608C37.8523 23.1947 38.2164 21.8803 39.2482 20.7883C39.5112 20.5153 39.5922 20.2524 39.5922 19.8985C39.5821 15.48 39.5821 11.0716 39.5922 6.65313C39.5922 4.95449 40.361 4.19616 42.0706 4.19616C42.4752 4.19616 42.8899 4.16583 43.2845 4.2366C44.3365 4.4186 44.9839 5.2477 44.994 6.42057C44.994 8.66521 44.9839 10.9301 44.9839 13.1848ZM41.1096 13.5387C41.1096 15.8339 41.0994 18.119 41.1197 20.4142C41.1197 20.9197 40.9882 21.2938 40.5734 21.6275C39.3595 22.6184 39.2685 24.408 40.3408 25.5303C41.3928 26.6324 43.1732 26.6324 44.2252 25.5404C45.2975 24.4181 45.2267 22.6487 44.0128 21.6376C43.6082 21.2938 43.4564 20.9399 43.4665 20.4243C43.4766 16.0159 43.4767 11.5974 43.4767 7.18901C43.4767 5.71281 43.4767 5.7128 42.02 5.7128C41.2411 5.7128 41.1197 5.83414 41.1096 6.62279C41.1096 8.92809 41.1096 11.2334 41.1096 13.5387Z" fill="#6BB2E2"/>
</svg>
