<svg width="35" height="44" viewBox="0 0 35 44" fill="none" xmlns="http://www.w3.org/2000/svg">
    <path d="M27.723 43.0728C26.6811 42.6785 26.327 41.9101 26.3371 40.8282C26.3675 34.6504 26.3472 28.4625 26.3472 22.2847C26.3472 21.6578 26.4079 21.0309 26.9542 20.6568C27.3082 20.4141 27.7634 20.2321 28.1984 20.2018C29.038 20.131 29.8777 20.1614 30.7274 20.1816C31.9109 20.2119 32.5988 20.9197 32.5988 22.1027C32.5988 28.4524 32.5887 34.8021 32.6089 41.1517C32.6089 42.1325 32.1031 42.6987 31.2838 43.0829C30.08 43.0728 28.8964 43.0728 27.723 43.0728ZM28.0366 41.4247C28.8458 41.4247 29.6045 41.3944 30.3632 41.4349C30.8285 41.4551 30.9601 41.3135 30.9601 40.8484C30.9398 34.7009 30.9499 28.5535 30.9499 22.406C30.9499 22.224 30.9297 22.0521 30.9297 21.8701C29.9383 21.8701 28.9976 21.8701 28.0467 21.8701C28.0366 28.3816 28.0366 34.8627 28.0366 41.4247Z" fill="#6BB2E2"/>
    <path d="M19.4278 43.0728C18.4668 42.6684 18.1532 41.9302 18.1633 40.909C18.1937 35.9243 18.1836 30.9396 18.1734 25.9549C18.1734 25.328 18.2847 24.7517 18.8209 24.3978C19.1243 24.1956 19.529 24.0642 19.8931 24.0439C20.8137 23.9934 21.7443 24.0136 22.675 24.0338C23.7371 24.054 24.3947 24.7113 24.4048 25.7931C24.4149 30.9598 24.4048 36.1367 24.4149 41.3034C24.4149 42.2134 23.9091 42.7088 23.1808 43.0728C21.9163 43.0728 20.672 43.0728 19.4278 43.0728ZM22.7256 41.3944C22.7256 36.1367 22.7256 30.9295 22.7256 25.7021C21.7544 25.7021 20.8137 25.7021 19.8527 25.7021C19.8527 30.9396 19.8527 36.1468 19.8527 41.3944C20.8137 41.3944 21.7544 41.3944 22.7256 41.3944Z" fill="#6BB2E2"/>
    <path d="M5.16468 0C5.63001 0.222441 5.81209 0.596547 5.77163 1.11221C5.74128 1.4762 5.77163 1.85031 5.77163 2.24464C6.05487 2.33563 6.328 2.40641 6.58089 2.51763C7.95665 3.08385 8.85696 4.04439 9.05927 5.56104C9.1402 6.17781 8.87719 6.60247 8.38152 6.67324C7.84538 6.75413 7.4812 6.42047 7.41039 5.77337C7.25865 4.52972 6.01441 3.70062 4.58808 3.88261C3.37418 4.04439 2.50422 4.85327 2.48398 5.83403C2.47387 6.80469 3.27302 7.62367 4.48692 7.81578C4.9826 7.89667 5.4985 7.88656 5.98406 7.98767C8.01734 8.42244 9.34252 10.2222 8.99858 12.1129C8.73557 13.5588 7.77456 14.4284 6.43927 14.9238C6.23695 15.0047 6.02453 15.0451 5.7514 15.126C5.7514 15.5507 5.76152 15.9854 5.7514 16.4202C5.74129 17.0067 5.43781 17.3707 4.94213 17.3808C4.43634 17.3909 4.05193 17.037 4.11263 16.4607C4.21379 15.5305 3.97101 15.035 2.98977 14.7014C1.78599 14.2868 1.05766 13.2757 0.845224 11.9815C0.824993 11.8298 0.804756 11.6782 0.814872 11.5265C0.835103 11.0715 1.13858 10.748 1.55333 10.7075C1.99843 10.6671 2.35248 10.9401 2.44352 11.4153C2.82792 13.3667 4.9219 14.1857 6.56067 13.0229C7.68352 12.2343 7.70375 10.7682 6.55054 10.0301C6.11556 9.75709 5.5592 9.65598 5.04329 9.53465C4.5375 9.41332 4.00136 9.42343 3.50568 9.28187C1.89726 8.78644 0.814874 7.39112 0.804758 5.87448C0.794643 4.35783 1.86692 2.93218 3.48545 2.46708C4.05194 2.3053 4.13286 2.03231 4.10252 1.55709C4.07217 0.980764 3.99125 0.353884 4.63866 0C4.82074 0 4.99271 0 5.16468 0Z" fill="#6BB2E2"/>
    <path d="M11.133 43.0727C10.2226 42.6481 9.96967 41.9201 9.97978 40.9393C10.0202 37.2488 10 33.5684 10 29.8779C10 28.5433 10.5665 27.9872 11.9018 27.9872C12.792 27.9872 13.6822 27.977 14.5825 27.9872C15.5637 27.9973 16.2213 28.6039 16.2213 29.5847C16.2314 33.5381 16.2213 37.5016 16.2314 41.455C16.2314 42.274 15.7357 42.729 15.0782 43.0727C13.7631 43.0727 12.448 43.0727 11.133 43.0727ZM11.6792 29.6555C11.6792 33.5886 11.6792 37.4915 11.6792 41.3943C12.6504 41.3943 13.5911 41.3943 14.5319 41.3943C14.5319 37.4611 14.5319 33.5684 14.5319 29.6555C13.581 29.6555 12.6504 29.6555 11.6792 29.6555Z" fill="#6BB2E2"/>
    <path d="M2.93888 43.0729C2.08915 42.7392 1.7958 42.1123 1.80592 41.2124C1.83626 38.6847 1.81603 36.1671 1.81603 33.6393C1.81603 32.4867 2.36228 31.9508 3.51548 31.9407C4.47649 31.9407 5.43749 31.9407 6.39849 31.9407C7.50112 31.9508 8.04738 32.5069 8.05749 33.6393C8.06761 35.975 8.05749 38.3207 8.05749 40.6563C8.05749 40.9597 8.05749 41.263 8.05749 41.5663C8.05749 42.3145 7.6124 42.7594 6.98522 43.0627C5.62969 43.0729 4.28429 43.0729 2.93888 43.0729ZM6.35804 33.6393C5.3768 33.6393 4.43603 33.6393 3.48514 33.6393C3.48514 36.2378 3.48514 38.7959 3.48514 41.3944C4.45626 41.3944 5.40715 41.3944 6.35804 41.3944C6.35804 38.7858 6.35804 36.2075 6.35804 33.6393Z" fill="#6BB2E2"/>
    <path d="M27.2777 13.0937C26.4988 12.3252 25.7401 11.5669 24.9814 10.7985C24.1823 9.9997 24.3441 9.37281 25.4265 9.0796C27.9656 8.40216 30.4946 7.71461 33.0336 7.03718C34.116 6.74396 34.5915 7.20907 34.2981 8.30105C33.6203 10.849 32.9325 13.4071 32.2446 15.9551C31.9715 16.9662 31.3139 17.138 30.5553 16.3898C29.8775 15.7124 29.1997 15.0248 28.5119 14.3272C28.4208 14.3879 28.35 14.4283 28.2994 14.489C25.4771 17.3807 22.0276 19.2209 18.2241 20.4342C13.0245 22.0823 7.68336 22.6081 2.26128 22.3957C1.78584 22.3755 1.32051 22.3654 0.845064 22.3149C0.258346 22.2441 -0.0451339 21.8902 0.00544521 21.3948C0.0560244 20.9094 0.450537 20.6263 1.03725 20.6668C4.39571 20.8993 7.74406 20.8083 11.0722 20.3432C15.6142 19.7163 19.9842 18.5232 23.8687 15.9753C25.0017 15.2271 25.993 14.2766 27.0451 13.4071C27.1159 13.3161 27.1766 13.215 27.2777 13.0937ZM30.9599 14.3373C31.4353 12.5477 31.9108 10.7681 32.4065 8.91782C30.535 9.42337 28.7647 9.89859 26.9844 10.3738C28.3298 11.7186 29.6246 13.0027 30.9599 14.3373Z" fill="#6BB2E2"/>
</svg>
