<svg width="18" height="12" viewBox="0 0 18 12" fill="none" xmlns="http://www.w3.org/2000/svg">
    <g clip-path="url(#clip0_155_813)">
        <path d="M1.75801 0C6.58496 0 11.4154 0 16.2424 0C16.5377 0.0520231 16.8436 0.0797688 17.1037 0.263584C17.0791 0.291329 17.065 0.315607 17.0439 0.332948C14.5303 2.81272 12.0131 5.29249 9.4959 7.76879C9.41855 7.84509 9.30605 7.90751 9.20059 7.93873C8.94043 8.01503 8.74004 7.90058 8.55723 7.72023C6.06465 5.26127 3.57207 2.80231 1.07598 0.343353C1.04082 0.30867 1.00566 0.267052 0.959961 0.218497C1.03027 0.187283 1.08301 0.152601 1.14629 0.13526C1.3502 0.0867052 1.5541 0.0450867 1.75801 0Z" fill="#6BB3E3"/>
        <path d="M16.2418 12C11.4148 12 6.58437 12 1.75742 12C1.55703 11.9584 1.35664 11.9203 1.17383 11.8821C2.8332 10.2382 4.48203 8.6116 6.13789 6.97461C6.16602 7.00236 6.21172 7.04051 6.25039 7.08212C6.74609 7.57114 7.2418 8.06363 7.74102 8.55264C8.51797 9.31912 9.60078 9.31912 10.3812 8.54918C10.8488 8.0879 11.3164 7.62663 11.784 7.16189C11.8332 7.11334 11.8648 7.04744 11.9 6.99889C13.5629 8.64282 15.1906 10.2521 16.8395 11.8821C16.6355 11.9203 16.4387 11.9619 16.2418 12Z" fill="#6BB3E3"/>
        <path d="M0 1.52606C0.0457031 1.38039 0.0878906 1.23126 0.133594 1.09253C1.84219 2.77808 3.54023 4.45669 5.22773 6.12143C3.57188 7.75149 1.89844 9.39889 0.203906 11.0671C0.140625 10.8798 0.0703125 10.6752 0 10.474C0 7.49137 0 4.50871 0 1.52606Z" fill="#6BB3E3"/>
        <path d="M17.9996 10.4739C17.9293 10.6785 17.859 10.8831 17.7922 11.0739C16.1258 9.43343 14.4699 7.80338 12.8281 6.18719C14.498 4.53632 16.1926 2.86465 17.8941 1.18604C17.9258 1.31436 17.9645 1.45309 17.9996 1.59528C17.9996 4.55367 17.9996 7.51551 17.9996 10.4739Z" fill="#6BB3E3"/>
    </g>
    <defs>
        <clipPath id="clip0_155_813">
            <rect width="18" height="12" fill="white"/>
        </clipPath>
    </defs>
</svg>
