<svg width="24" height="24" viewBox="0 0 24 24" fill="none" xmlns="http://www.w3.org/2000/svg">
    <path d="M16.564 0.0049936L13.4518 0C9.95524 0 7.69564 2.31828 7.69564 5.90643V8.62969H4.5664C4.296 8.62969 4.07703 8.84891 4.07703 9.11932V13.065C4.07703 13.3354 4.29625 13.5544 4.5664 13.5544H7.69564V23.5106C7.69564 23.781 7.91461 24 8.18501 24H12.2678C12.5382 24 12.7572 23.7808 12.7572 23.5106V13.5544H16.416C16.6864 13.5544 16.9053 13.3354 16.9053 13.065L16.9068 9.11932C16.9068 8.98948 16.8552 8.86514 16.7635 8.77326C16.6719 8.68138 16.547 8.62969 16.4172 8.62969H12.7572V6.32115C12.7572 5.21157 13.0216 4.64829 14.467 4.64829L16.5635 4.64755C16.8337 4.64755 17.0527 4.42833 17.0527 4.15817V0.494367C17.0527 0.224462 16.8339 0.00549296 16.564 0.0049936Z" fill="#6BB3E3"/>
</svg>
