<svg width="52" height="47" viewBox="0 0 52 47" fill="none" xmlns="http://www.w3.org/2000/svg">
    <path d="M51.793 22.3351C51.793 22.5374 51.793 22.7396 51.793 22.9418C51.3985 23.5282 50.7511 23.3462 50.2049 23.417C50.2049 30.4947 50.2049 37.5117 50.2049 44.5591C50.7916 44.6197 51.4491 44.4074 51.793 45.0848C51.793 45.4185 51.793 45.7623 51.793 46.0959C34.5253 46.0959 17.2677 46.0959 0 46.0959C0 45.7623 0 45.4185 0 45.0848C0.343938 44.3872 1.04193 44.64 1.58819 44.5591C1.58819 37.4814 1.58819 30.4543 1.58819 23.3968C1.00147 23.3968 0.394517 23.4979 0 22.9418C0 22.7396 0 22.5374 0 22.3351C0.0910425 22.1835 0.192202 22.0318 0.273129 21.87C1.23413 19.7164 2.20525 17.5729 3.12579 15.4192C3.38881 14.8025 3.75297 14.5699 4.43073 14.5699C9.43807 14.5901 14.4353 14.58 19.4426 14.5901C19.7866 14.5901 20.0395 14.489 20.2822 14.2363C21.7693 12.7297 23.2765 11.2232 24.7838 9.73687C25.0468 9.4841 25.1581 9.22121 25.1581 8.85722C25.148 6.24859 25.1581 3.63995 25.1479 1.03132C25.1479 0.566216 25.2795 0.21233 25.7144 0C27.768 0 29.8316 0 31.8851 0C32.0469 0.31344 32.3201 0.616774 32.3403 0.940326C32.3909 2.16375 32.3707 3.39729 32.3605 4.63083C32.3504 5.31838 32.0874 5.57115 31.3995 5.57115C30.0137 5.57115 28.6379 5.57115 27.252 5.57115C27.07 5.57115 26.898 5.57115 26.6856 5.57115C26.6856 6.74402 26.6653 7.83601 26.6957 8.928C26.7058 9.18077 26.8272 9.4841 26.9992 9.66609C28.4963 11.1929 30.0238 12.6994 31.531 14.216C31.7839 14.4789 32.0368 14.5901 32.4111 14.5901C37.4387 14.58 42.4561 14.5901 47.4837 14.5699C48.0704 14.5699 48.4144 14.7822 48.647 15.3181C49.5979 17.5122 50.5791 19.6861 51.5503 21.87C51.6008 22.0318 51.702 22.1835 51.793 22.3351ZM25.8561 10.6266C25.6841 10.8693 25.593 11.0412 25.4615 11.1726C21.5568 15.0856 17.642 18.9884 13.7373 22.9014C13.3832 23.2552 13.0191 23.3968 12.5335 23.3968C9.59992 23.3766 6.66633 23.3867 3.73274 23.3867C3.54054 23.3867 3.34834 23.3867 3.16625 23.3867C3.16625 30.4947 3.16625 37.5117 3.16625 44.5388C8.33544 44.5388 13.4642 44.5388 18.6435 44.5388C18.6435 43.8007 18.6435 43.093 18.6435 42.3953C18.6435 41.5662 18.8761 41.3337 19.6854 41.3337C19.8675 41.3337 20.0395 41.3337 20.262 41.3337C20.262 41.0809 20.262 40.8989 20.262 40.7169C20.262 38.8666 20.262 37.0062 20.262 35.1559C20.262 34.256 20.4643 34.0437 21.3545 34.0437C24.369 34.0437 27.3937 34.0437 30.4082 34.0437C31.3186 34.0437 31.5209 34.2459 31.5209 35.1862C31.5209 37.0365 31.5209 38.8969 31.5209 40.7472C31.5209 40.9292 31.5209 41.1112 31.5209 41.3134C31.6929 41.3236 31.8143 41.3337 31.9256 41.3337C32.9877 41.3539 33.1395 41.5055 33.1395 42.5773C33.1395 43.2244 33.1395 43.8816 33.1395 44.5388C38.339 44.5388 43.4677 44.5388 48.6268 44.5388C48.6268 37.4915 48.6268 30.4644 48.6268 23.4069C48.293 23.3867 47.9794 23.3968 47.6658 23.3563C47.2814 23.3058 47.0083 23.0429 47.0588 22.6789C47.0993 22.416 47.3218 22.1329 47.5343 21.9408C47.6557 21.8296 47.9187 21.87 48.121 21.87C48.6672 21.8599 49.2236 21.87 49.8306 21.87C49.7496 21.6476 49.6991 21.506 49.6384 21.3746C48.9201 19.7568 48.1918 18.1492 47.4938 16.5314C47.3421 16.1776 47.1398 16.0866 46.7756 16.0866C42.5269 16.0967 38.2783 16.0967 34.0297 16.0967C33.8678 16.0967 33.7059 16.0967 33.4632 16.0967C33.5643 16.2382 33.6048 16.309 33.6655 16.3596C35.4256 18.129 37.1858 19.8883 38.9662 21.6476C39.1078 21.7892 39.3809 21.87 39.5934 21.87C40.6859 21.8903 41.7885 21.8802 42.881 21.8802C43.4374 21.8802 43.9937 21.8599 44.5501 21.9004C45.1267 21.9408 45.4504 22.4363 45.2481 22.9216C45.0761 23.3361 44.7322 23.4069 44.3377 23.4069C42.6382 23.4069 40.9286 23.3968 39.2292 23.417C38.7537 23.4271 38.4098 23.2755 38.0659 22.9317C34.3129 19.1603 30.5397 15.399 26.7766 11.6276C26.4934 11.3445 26.2405 11.0513 25.8561 10.6266ZM1.95235 21.8397C2.11421 21.8599 2.19513 21.87 2.27606 21.87C5.61428 21.87 8.95251 21.8801 12.2907 21.8599C12.493 21.8599 12.7459 21.7285 12.8977 21.5869C14.6174 19.8984 16.3168 18.1896 18.0163 16.4809C18.1174 16.3798 18.1883 16.2686 18.34 16.0967C18.0568 16.0967 17.8747 16.0967 17.6926 16.0967C13.7272 16.0967 9.77189 16.1371 5.80649 16.0663C4.82525 16.0461 4.31946 16.2888 3.96541 17.2392C3.3888 18.7761 2.65035 20.2624 1.95235 21.8397ZM31.612 42.8908C27.768 42.8908 23.9947 42.8908 20.2114 42.8908C20.2114 43.4671 20.2114 44.0131 20.2114 44.549C24.0352 44.549 27.8084 44.549 31.612 44.549C31.612 43.9827 31.612 43.4469 31.612 42.8908ZM25.0974 41.3236C25.0974 39.3924 25.0974 37.5016 25.0974 35.6109C23.9745 35.6109 22.9022 35.6109 21.83 35.6109C21.83 37.5421 21.83 39.4328 21.83 41.3236C22.9326 41.3236 23.9846 41.3236 25.0974 41.3236ZM29.9732 41.3033C29.9732 39.3822 29.9732 37.4915 29.9732 35.6007C28.8503 35.6007 27.768 35.6007 26.6856 35.6007C26.6856 37.5218 26.6856 39.3924 26.6856 41.3033C27.7781 41.3033 28.8503 41.3033 29.9732 41.3033ZM30.7926 1.54698C29.3966 1.54698 28.0411 1.54698 26.6856 1.54698C26.6856 2.38619 26.6856 3.18496 26.6856 4.01406C28.0613 4.01406 29.4168 4.01406 30.7926 4.01406C30.7926 3.18496 30.7926 2.38619 30.7926 1.54698Z" fill="#6BB2E2"/>
    <path d="M40.4939 40.4236C38.6932 40.4236 36.8825 40.4236 35.0819 40.4236C34.3232 40.4236 34.0703 40.181 34.0703 39.4429C34.0703 37.9565 34.0703 36.4803 34.0703 34.994C34.0703 34.2964 34.3232 34.0537 35.0111 34.0537C38.673 34.0537 42.3248 34.0537 45.9868 34.0537C46.6746 34.0537 46.9275 34.3166 46.9376 35.0041C46.9376 36.5006 46.9478 38.0071 46.9376 39.5035C46.9376 40.1506 46.6544 40.4236 46.007 40.4337C44.1659 40.4236 42.3248 40.4236 40.4939 40.4236ZM35.6079 38.8564C37.0241 38.8564 38.3695 38.8564 39.7048 38.8564C39.7048 37.7442 39.7048 36.6724 39.7048 35.6007C38.319 35.6007 36.9736 35.6007 35.6079 35.6007C35.6079 36.7028 35.6079 37.7745 35.6079 38.8564ZM45.3899 38.8867C45.3899 37.7644 45.3899 36.6927 45.3899 35.5906C44.0142 35.5906 42.6586 35.5906 41.293 35.5906C41.293 36.7028 41.293 37.7847 41.293 38.8867C42.6688 38.8867 44.004 38.8867 45.3899 38.8867Z" fill="#6BB2E2"/>
    <path d="M11.3296 25.9447C13.1201 25.9447 14.9005 25.9447 16.691 25.9447C17.5205 25.9447 17.7228 26.157 17.7228 26.9962C17.7228 28.4421 17.7228 29.8981 17.7228 31.3439C17.7228 32.0618 17.4699 32.3247 16.7517 32.3247C13.11 32.3247 9.46828 32.3247 5.82659 32.3247C5.11848 32.3247 4.85547 32.0517 4.85547 31.3338C4.85547 29.8677 4.85547 28.4016 4.85547 26.9356C4.85547 26.1873 5.10836 25.9447 5.86705 25.9447C7.6879 25.9346 9.50875 25.9447 11.3296 25.9447ZM16.1751 30.7777C16.1751 29.6554 16.1751 28.5836 16.1751 27.5018C14.7892 27.5018 13.4438 27.5018 12.0782 27.5018C12.0782 28.614 12.0782 29.6857 12.0782 30.7777C13.4539 30.7777 14.7993 30.7777 16.1751 30.7777ZM6.42342 27.4815C6.42342 28.614 6.42342 29.6958 6.42342 30.7777C7.80929 30.7777 9.14458 30.7777 10.5001 30.7777C10.5001 29.6655 10.5001 28.5836 10.5001 27.4815C9.12435 27.4815 7.78906 27.4815 6.42342 27.4815Z" fill="#6BB2E2"/>
    <path d="M40.473 32.3146C38.6825 32.3146 36.9021 32.3146 35.1116 32.3146C34.2922 32.3146 34.0596 32.082 34.0596 31.2631C34.0596 29.8172 34.0596 28.3612 34.0596 26.9153C34.0596 26.1772 34.2922 25.9346 35.0206 25.9346C38.6623 25.9346 42.304 25.9346 45.9457 25.9346C46.6942 25.9346 46.9269 26.1873 46.937 26.9457C46.937 28.3915 46.937 29.8475 46.937 31.2934C46.937 32.0618 46.674 32.3146 45.8951 32.3146C44.0844 32.3247 42.2837 32.3146 40.473 32.3146ZM41.2823 30.7676C42.658 30.7676 44.0135 30.7676 45.3792 30.7676C45.3792 29.6554 45.3792 28.5735 45.3792 27.4917C43.9933 27.4917 42.6479 27.4917 41.2823 27.4917C41.2823 28.6039 41.2823 29.6756 41.2823 30.7676ZM35.6174 30.7676C37.0033 30.7676 38.3487 30.7676 39.7143 30.7676C39.7143 29.6554 39.7143 28.5836 39.7143 27.5018C38.3285 27.5018 36.983 27.5018 35.6174 27.5018C35.6174 28.6039 35.6174 29.6756 35.6174 30.7676Z" fill="#6BB2E2"/>
    <path d="M10.5101 35.5905C9.14447 35.5905 7.79906 35.5905 6.42331 35.5905C6.42331 36.6825 6.42331 37.7644 6.42331 38.917C6.71667 38.917 6.99991 38.8968 7.28316 38.917C7.70802 38.9474 7.96092 39.19 8.00138 39.6147C8.04184 40.0191 7.74849 40.3831 7.32362 40.4033C6.75714 40.4337 6.18053 40.4438 5.60393 40.4033C5.15884 40.373 4.8857 40.0899 4.8857 39.645C4.87559 38.0273 4.86547 36.4095 4.8857 34.7918C4.89582 34.2862 5.21953 34.0436 5.82648 34.0436C8.73983 34.0436 11.6633 34.0436 14.5767 34.0436C15.3354 34.0436 16.094 34.0334 16.8527 34.0436C17.4799 34.0537 17.7429 34.2963 17.7429 34.9333C17.753 36.4702 17.753 37.9969 17.7429 39.5338C17.7429 40.1506 17.4597 40.4135 16.8325 40.4135C14.7891 40.4236 12.7558 40.4135 10.7124 40.4135C10.1358 40.4135 9.78177 40.1708 9.76154 39.7259C9.73119 39.2204 10.0448 38.9676 10.5303 38.8665C10.5101 37.7846 10.5101 36.7027 10.5101 35.5905ZM12.0781 35.5804C12.0781 36.7128 12.0781 37.7745 12.0781 38.8665C13.4538 38.8665 14.8093 38.8665 16.175 38.8665C16.175 37.7543 16.175 36.6724 16.175 35.5804C14.7992 35.5804 13.4538 35.5804 12.0781 35.5804Z" fill="#6BB2E2"/>
    <path d="M25.887 18.6346C28.9825 18.6244 31.5215 21.1623 31.5215 24.2563C31.5215 27.3502 28.9622 29.8982 25.8769 29.8779C22.7916 29.8577 20.293 27.3603 20.2727 24.2765C20.2424 21.2027 22.7916 18.6447 25.887 18.6346ZM25.887 20.1512C23.6211 20.1613 21.7699 22.0318 21.7901 24.2765C21.8103 26.5211 23.6413 28.3512 25.887 28.3613C28.1428 28.3714 30.0042 26.511 30.0042 24.2563C30.0042 22.0015 28.1428 20.1411 25.887 20.1512Z" fill="#6BB2E2"/>
    <path d="M25.1373 25.0346C25.1373 24.8526 25.1474 24.6605 25.1373 24.4785C25.117 24.0033 25.2991 23.6798 25.7442 23.4877C26.1994 23.2854 26.6445 23.0327 27.0997 22.8203C27.5651 22.5979 27.9899 22.7192 28.1922 23.1034C28.3844 23.4877 28.2529 23.973 27.7977 24.1449C26.948 24.4583 26.4928 24.9335 26.6344 25.9143C26.6951 26.3491 26.3107 26.6322 25.8959 26.6322C25.4913 26.6322 25.1979 26.3491 25.1575 25.8941C25.1271 25.6009 25.1474 25.3177 25.1373 25.0346C25.1474 25.0346 25.1373 25.0346 25.1373 25.0346Z" fill="#6BB2E2"/>
</svg>
