<svg width="741" height="934" viewBox="0 0 741 934" fill="none" xmlns="http://www.w3.org/2000/svg">
    <g clip-path="url(#clip0_0_1)">
        <path d="M696.954 844.578C688.864 836.262 683.747 827.115 687.555 814.76C690.172 806.325 691.005 797.534 688.745 788.505C687.436 783.515 686.841 777.813 687.793 772.705C688.745 767.002 688.031 762.726 683.985 758.805C681.844 756.786 680.178 754.291 678.274 751.915C669.112 740.985 669.112 740.985 678.512 730.412C682.082 726.373 678.155 723.878 676.489 721.146C674.586 717.938 672.325 719.364 670.183 721.265C667.09 724.116 663.996 726.848 660.903 729.581C659.237 731.006 656.738 732.788 655.072 731.125C651.384 727.442 646.268 722.215 647.338 717.82C648.766 711.404 645.792 707.722 643.293 703.207C641.865 700.712 640.081 698.336 636.749 699.168C633.774 699.881 630.324 700.119 629.61 704.276C629.253 707.009 627.111 708.078 624.732 708.791C615.808 711.88 606.765 714.968 597.841 718.295C594.153 719.72 592.487 718.77 591.416 715.087C589.156 707.128 586.3 699.287 583.92 691.327C582.493 686.694 577.971 685.625 574.878 682.893C572.736 686.219 568.81 685.031 565.835 686.219C553.461 690.971 553.342 690.733 547.393 679.21C547.155 678.853 547.036 678.497 546.798 678.141C545.37 674.339 542.99 673.745 539.302 675.408C534.661 677.547 529.783 679.329 524.905 680.992C521.454 682.18 519.907 679.923 518.718 677.071C517.409 673.864 519.907 673.389 521.93 672.676C526.333 671.131 527.879 668.161 527.641 663.528C527.165 654.856 526.689 646.184 525.619 637.511C525.143 633.947 524.072 629.314 528.355 627.413C534.899 624.562 534.066 620.523 531.449 615.534C530.259 613.276 529.426 610.782 528.474 608.406C522.882 594.981 522.882 595.219 508.128 596.407C502.298 596.882 500.037 598.545 502.06 604.366C503.012 607.099 502.536 609.594 499.561 610.663C496.825 611.613 494.207 611.613 492.184 608.762C489.567 605.079 488.258 600.921 488.377 596.526C488.377 593.081 487.306 591.417 483.499 591.892C478.858 592.605 478.739 589.992 479.81 586.547C480.643 584.052 482.071 582.626 484.569 581.676C491.113 579.181 497.777 577.399 504.678 576.686C509.437 576.211 510.27 574.548 508.723 570.152C503.726 555.778 499.085 541.284 494.207 526.791C490.162 514.673 490.162 514.554 502.298 511.347C507.176 510.04 508.247 507.426 507.057 503.031C505.986 499.467 504.916 495.784 503.845 492.22C500.275 480.34 496.825 468.341 493.136 456.461C490.994 449.571 490.281 449.452 483.38 451.828C478.382 453.61 473.266 455.392 468.15 456.699C463.628 457.887 461.606 460.501 461.487 465.134C461.368 470.836 461.13 476.657 460.654 482.36C460.178 488.3 446.852 497.447 442.092 494.002C437.571 490.676 433.288 491.626 428.766 491.032C425.078 484.023 419.367 477.133 422.817 468.46C424.959 463.233 423.888 458.956 421.746 454.323C420.437 451.472 418.772 450.878 416.154 452.422C413.417 453.967 410.443 455.273 407.706 456.818C403.304 459.431 400.686 458.956 399.258 453.491C396.998 444.938 394.261 436.384 391.643 427.95C389.978 422.366 385.932 420.584 380.578 423.079C376.057 425.217 372.249 428.306 368.68 431.87C367.371 433.177 366.062 435.434 363.801 434.721C361.541 434.008 362.017 431.514 361.779 429.613C361.422 427.237 361.303 424.861 360.946 422.485C360.708 420.822 361.184 418.565 358.923 418.089C356.9 417.614 355.711 419.396 354.64 420.822C351.903 424.504 349.285 428.187 346.787 431.989C344.526 435.315 342.384 434.721 340.243 431.87C337.03 427.356 337.506 422.96 341.433 419.04C342.384 417.971 343.455 417.02 342.384 415.476C341.195 413.813 339.648 414.169 338.22 415.119C336.435 416.426 334.769 417.852 332.985 419.04C331.795 419.871 330.486 421.772 329.058 420.109C327.63 418.446 328.939 416.783 330.367 415.595C332.866 413.337 335.364 411.08 337.744 408.704C340.243 406.209 342.027 402.764 340.124 399.675C337.982 396.349 337.149 393.142 336.911 389.221C336.792 385.657 334.769 383.994 331.438 387.083C329.891 388.508 328.225 390.053 326.679 391.597C324.061 394.211 321.919 394.567 319.778 390.766C316.327 384.588 312.639 378.41 308.712 372.47C306.808 369.619 307.879 368.312 310.378 367.006C314.542 364.867 318.588 362.254 322.871 360.234C328.225 357.621 332.271 354.651 330.962 347.76C330.486 344.79 333.223 342.889 334.413 340.395C336.078 336.831 339.053 333.504 337.625 329.346C336.435 325.545 337.387 322.931 340.124 320.436C342.741 318.06 342.622 316.16 338.696 315.209C334.175 314.14 333.58 311.883 335.364 307.369C338.339 300.003 341.076 292.281 335.007 284.915C333.461 283.015 332.033 280.52 331.438 278.144C330.367 273.273 326.679 267.69 332.628 263.532C344.645 255.097 345.24 241.91 347.382 229.318C347.739 227.417 347.977 225.041 345.478 224.328C342.86 223.496 340.124 222.902 337.625 225.16C329.772 232.525 324.061 230.743 321.086 220.289C318.35 210.666 322.871 203.894 328.701 197.361C332.747 192.965 337.149 189.045 340.362 183.936C341.552 182.035 342.503 179.897 341.076 177.877C339.886 176.214 337.863 176.927 336.078 177.402C330.486 178.828 324.894 180.135 319.302 181.441C315.613 182.392 313.59 181.323 312.52 177.165C308.712 162.196 304.667 147.346 300.502 132.496C299.55 129.051 299.55 124.061 294.434 124.299C290.032 124.537 284.083 122.992 282.774 130.358C282.417 132.615 279.799 133.209 277.658 133.803C273.612 134.753 267.068 133.09 269.329 141.287C269.448 141.525 269.091 142.238 268.853 142.357C263.855 143.782 266.354 146.99 266.949 149.841C267.544 152.573 268.02 155.306 264.569 156.969C256.241 161.127 239.94 157.206 234.705 149.722C229.588 142.238 222.568 141.525 216.143 147.702C215.31 148.534 214.358 149.247 213.526 150.197C210.313 154.118 207.576 153.405 204.602 149.603C198.296 141.525 191.752 133.684 185.208 125.725C183.542 123.705 182.114 121.567 179.496 120.735C174.023 119.072 171.881 116.102 172.595 109.924C173.071 106.004 174.261 99.7076 170.573 97.6881C163.91 94.1241 166.289 91.3917 169.502 87.4713C173.547 82.4818 171.881 77.3734 169.145 72.5026C166.646 68.1071 164.029 64.6619 157.722 64.8995C153.201 65.0183 149.275 65.7311 145.467 67.9883C143.206 69.2951 140.946 69.6515 138.804 68.1071C134.283 64.8995 129.761 65.0183 124.883 67.3943C122.265 68.7011 119.172 69.2951 116.316 69.6515C111.795 70.2455 107.512 69.8891 105.727 64.5431C105.251 63.2363 104.299 61.3355 102.99 61.9295C97.041 64.6619 92.6386 60.6227 87.5223 59.1971C82.882 58.0092 78.3606 56.5836 74.7911 53.2572C72.8874 51.4752 70.9837 50.6436 68.366 51.7128C66.9382 52.3068 64.9155 52.782 63.7257 52.188C57.8955 49.3368 54.9209 53.0196 52.0653 56.94C48.9718 61.2167 45.0453 64.4243 40.167 66.2063C40.167 67.0379 40.167 67.7507 40.167 68.5823C43.6175 70.9583 42.6656 74.5222 42.0707 77.7298C40.6429 85.9269 40.8809 86.2833 48.4958 83.6698C51.8273 82.4818 55.3968 81.769 58.3714 82.957C67.8901 86.7585 77.4087 90.7977 86.6894 95.3121C90.021 96.9753 89.783 100.777 88.9501 103.866C88.2362 106.717 85.3806 106.836 83.001 105.766C79.5504 104.341 78.7176 106.123 77.6467 108.974C75.267 115.389 72.6494 121.685 65.8674 125.368C55.8728 130.833 55.2779 141.644 64.0826 148.89C68.485 152.573 72.8874 151.504 74.1962 145.802C75.0291 142.357 75.267 138.793 75.505 135.229C76.0999 127.388 80.1454 124.299 87.8793 126.437C93.8284 128.101 99.4206 128.219 105.37 126.913C115.84 124.537 118.339 126.319 121.195 136.179C124.169 146.515 135.711 152.217 145.824 148.296C154.629 144.97 157.365 145.802 160.816 154.83C162.601 159.582 165.099 163.028 170.097 164.691C174.618 166.235 176.165 169.324 173.785 174.076C172 177.64 171.643 181.679 172.357 185.718C172.833 188.569 174.023 191.539 177.117 192.015C190.443 193.797 203.769 195.697 217.214 196.41C222.092 196.648 226.852 196.41 231.73 197.717C246.127 201.875 252.433 213.042 248.15 227.179C247.436 229.436 246.603 231.693 245.532 233.832C242.795 239.772 241.963 246.068 243.271 252.365C245.175 260.918 245.413 269.115 241.725 277.312C240.059 280.995 238.75 285.509 241.844 289.192C245.413 293.35 246.722 298.102 247.674 303.211C248.626 308.081 250.41 312.596 253.98 316.397C256.241 318.773 257.192 321.506 255.527 325.07C250.767 334.811 252.314 343.84 260.881 350.611C270.162 357.977 271.232 367.125 268.853 377.816C267.306 384.826 269.21 391.003 275.278 395.755C280.87 400.151 286.581 404.427 293.244 407.16C296.933 408.585 300.502 410.367 303.834 412.387C309.902 415.951 310.973 420.228 307.641 426.286C305.619 429.969 303.596 433.533 301.573 437.216C296.1 446.958 297.409 451.353 307.641 456.58C315.018 460.382 322.514 464.183 328.701 469.767C333.342 473.925 335.007 479.39 334.056 485.33C333.104 490.438 328.106 490.794 324.18 491.388C318.112 492.339 316.089 487.943 314.423 483.191C312.758 478.558 306.451 474.281 303.596 475.826C298.956 478.32 298.956 482.835 300.026 487.23C300.621 489.725 301.454 492.22 302.763 494.358C306.927 501.13 311.33 507.664 315.732 514.198C317.16 516.336 319.302 517.762 321.324 519.425C327.63 524.771 335.364 528.573 338.22 537.72C339.886 543.066 343.693 548.65 348.215 551.857C352.736 554.946 352.855 557.797 351.427 561.599C349.285 567.539 346.192 573.122 342.86 578.468C339.767 583.458 336.792 588.566 330.486 590.586C327.512 591.536 325.727 594.268 325.251 597.357C324.537 601.634 322.157 604.96 319.302 608.049C313.828 613.87 314.066 616.365 319.659 621.949C322.514 624.8 325.846 625.037 329.534 624.681C331.438 624.443 333.58 623.968 334.175 626.819C334.531 628.72 335.245 630.383 337.506 630.146C340.005 629.908 340.243 627.651 340.719 625.75C341.314 622.899 341.552 619.81 344.407 617.909C347.501 615.89 348.215 613.276 347.501 609.712C346.787 606.267 346.43 601.515 351.07 601.04C355.711 600.684 355.116 605.317 354.997 608.643C354.997 609 355.116 609.475 355.116 609.831C355.592 612.92 357.019 613.039 359.042 611.138C362.017 608.406 362.136 604.842 361.065 601.278C360.232 598.664 358.923 596.169 357.733 593.674C353.212 584.408 354.283 582.389 364.277 580.844C367.847 580.25 369.87 581.795 371.297 584.883C372.249 587.022 373.796 589.16 376.295 587.497C378.436 586.071 379.15 583.339 378.317 580.607C377.841 579.3 375.343 578.943 377.009 576.33C382.72 579.775 388.431 583.339 394.261 586.547C398.782 589.041 401.757 592.011 401.043 597.714C400.567 601.872 403.423 604.842 406.992 606.386C410.562 607.93 413.893 606.03 417.344 604.96C421.865 605.911 424.483 608.643 425.792 613.039C428.171 620.879 432.574 627.057 442.806 628.839C436.143 631.215 437.333 634.541 439.713 638.224C440.308 639.056 440.665 640.006 441.022 640.838C441.616 642.62 443.52 644.402 441.259 646.065C439.118 647.609 437.095 646.54 435.31 645.233C433.526 643.927 432.455 641.432 429.242 641.551C429.361 642.62 429.242 643.689 429.599 644.402C431.503 648.56 434.715 651.886 437.571 655.45C439.713 658.064 441.497 660.677 439.832 664.004C438.285 667.211 435.31 667.449 432.217 667.33C427.814 667.211 423.531 667.211 419.129 667.211C417.82 667.211 416.273 666.736 415.797 668.637C415.44 670.181 417.225 672.914 414.25 672.795C411.99 672.795 412.585 670.062 412.466 668.399C412.347 667.092 412.228 665.904 410.562 666.023C409.015 666.142 408.777 667.449 408.896 668.637C409.134 670.181 409.134 672.201 410.086 673.151C417.225 679.923 420.913 689.783 431.265 693.822C443.996 698.812 448.636 698.218 456.013 686.932C463.271 675.765 463.747 675.646 474.813 683.011C475.527 683.487 476.122 683.843 476.835 684.318C479.81 686.575 481.119 689.545 479.929 693.228C478.739 696.911 478.025 700.475 479.096 704.276C479.572 705.821 479.572 708.078 477.192 707.603C471.6 706.534 467.436 710.81 462.32 710.81C457.203 710.81 458.75 714.018 460.892 715.444C466.484 718.889 469.459 723.76 471.362 729.818C472.433 733.263 477.549 736.352 475.408 739.56C472.909 743.243 467.198 742.055 462.676 742.53C462.32 742.53 461.963 742.292 461.487 742.173C457.441 740.985 457.56 743.243 458.393 745.975C459.583 749.42 462.082 752.034 465.175 753.935C467.079 755.122 468.745 756.548 465.413 757.974C461.249 759.874 462.676 762.369 464.223 765.22C466.96 770.329 468.15 775.318 465.056 780.902C463.271 784.109 466.603 793.019 469.815 792.782C474.932 792.544 479.81 790.049 485.283 790.525C486.83 790.643 488.972 787.436 491.946 787.911C493.731 788.149 495.04 786.842 495.278 785.179C495.873 781.258 498.847 778.526 499.918 775.318C501.465 770.566 503.964 770.329 507.652 770.329C511.222 770.329 515.267 769.854 517.766 772.705C524.429 780.427 528.117 789.693 527.522 799.91C527.284 804.305 527.284 808.463 527.879 812.859C528.236 815.71 529.545 816.898 532.52 817.967C537.993 819.868 542.752 824.026 549.177 821.769C549.534 821.65 550.367 822.244 550.605 822.719C553.461 829.491 558.339 829.847 564.288 827.234C565.597 826.64 567.382 827.234 569.047 827.115C571.665 826.996 575.83 829.253 574.997 823.313C574.878 822.125 577.019 821.294 578.328 821.531C582.017 822.363 588.204 818.324 588.204 826.877C588.204 828.897 591.178 831.51 593.796 831.51C597.365 831.629 595.7 828.422 595.938 826.521C596.176 824.62 597.365 824.382 598.912 824.62C600.816 824.858 602.482 824.382 604.029 823.551C605.694 822.719 607.36 821.888 609.026 823.313C610.93 824.976 610.216 826.877 609.502 828.778C609.145 829.728 608.788 830.679 609.502 831.629C612 832.58 613.309 828.659 616.403 830.322C614.618 833.649 606.051 837.925 617.474 839.47C614.737 841.965 606.17 838.995 611.524 847.429C608.55 847.548 605.575 846.479 603.91 849.211C601.887 852.657 606.527 853.488 607.003 856.102C605.337 858.359 600.221 857.884 601.411 861.923C602.482 865.606 606.408 865.368 609.502 865.249C613.666 865.012 617.236 866.556 620.805 868.219C622.947 869.289 626.873 870.001 626.516 867.269C625.802 860.972 629.61 864.774 631.514 864.893C631.871 862.16 632.109 859.903 629.967 858.478C628.658 857.646 627.587 856.577 629.372 855.27C630.681 854.32 631.99 855.033 633.06 855.983C634.369 857.171 634.131 858.953 634.369 860.379C634.607 861.567 634.607 862.873 636.154 862.992C637.701 863.111 637.939 861.804 638.177 860.616C638.415 858.834 638.653 856.696 641.27 857.527C643.769 858.359 644.364 860.379 643.055 862.755C642.579 863.705 641.627 864.774 642.936 866.318C645.911 864.893 649.123 862.517 652.336 866.2C653.05 866.912 654.715 865.368 655.786 864.536C656.857 863.705 657.214 861.567 659.475 862.279C659.594 864.655 657.571 865.606 656.381 867.15C655.191 868.576 653.883 869.882 654.596 871.902C655.429 874.04 657.452 873.565 659.237 873.684C661.021 873.803 662.806 873.565 664.353 874.753C665.305 875.585 666.971 876.298 665.9 877.961C665.067 879.149 663.758 878.555 662.687 877.961C661.378 877.248 660.546 875.228 658.761 876.892C657.928 877.604 658.166 878.674 658.523 879.624C659.237 881.406 660.546 881.762 662.33 881.644C670.421 880.812 678.393 879.386 685.651 875.585C687.079 874.872 689.34 873.328 689.221 872.852C687.436 867.15 693.385 864.299 693.623 859.428C693.742 858.003 693.98 856.815 695.408 855.983C702.428 852.3 702.428 850.162 696.954 844.578Z" fill="#6BB2E2"/>
    </g>
    <mask id="path-2-inside-1_0_1" fill="white">
        <path d="M736.593 892.292C727.519 882.939 721.781 872.652 726.051 858.756C728.987 849.27 729.921 839.384 727.386 829.229C725.918 823.618 725.25 817.205 726.318 811.46C727.386 805.047 726.585 800.237 722.048 795.828C719.646 793.557 717.778 790.751 715.643 788.079C705.368 775.787 705.368 775.787 715.91 763.896C719.913 759.353 715.509 756.548 713.641 753.475C711.506 749.867 708.971 751.471 706.569 753.608C703.099 756.815 699.63 759.888 696.16 762.961C694.292 764.564 691.49 766.568 689.622 764.698C685.485 760.556 679.747 754.677 680.948 749.734C682.549 742.519 679.213 738.377 676.411 733.3C674.81 730.494 672.808 727.822 669.072 728.758C665.736 729.559 661.866 729.826 661.066 734.503C660.665 737.576 658.263 738.778 655.594 739.58C645.586 743.053 635.445 746.527 625.437 750.268C621.3 751.871 619.432 750.803 618.231 746.661C615.696 737.709 612.493 728.891 609.824 719.94C608.223 714.729 603.152 713.526 599.683 710.454C597.281 714.195 592.877 712.858 589.541 714.194C575.663 719.539 575.53 719.271 568.858 706.312C568.591 705.911 568.458 705.51 568.191 705.109C566.589 700.834 563.921 700.166 559.784 702.036C554.58 704.441 549.109 706.445 543.638 708.316C539.768 709.652 538.033 707.113 536.699 703.907C535.231 700.299 538.033 699.765 540.302 698.963C545.239 697.226 546.974 693.886 546.707 688.676C546.173 678.922 545.639 669.169 544.438 659.416C543.905 655.408 542.704 650.197 547.507 648.059C554.847 644.853 553.913 640.31 550.977 634.699C549.643 632.16 548.708 629.355 547.641 626.682C541.369 611.585 541.369 611.852 524.823 613.188C518.284 613.723 515.749 615.593 518.017 622.14C519.085 625.213 518.551 628.018 515.215 629.221C512.146 630.29 509.21 630.29 506.941 627.083C504.006 622.941 502.538 618.265 502.671 613.322C502.671 609.447 501.47 607.577 497.2 608.111C491.996 608.913 491.863 605.973 493.064 602.099C493.998 599.293 495.599 597.69 498.401 596.621C505.74 593.815 513.213 591.811 520.953 591.009C526.29 590.475 527.224 588.605 525.49 583.661C519.885 567.495 514.681 551.195 509.21 534.895C504.673 521.267 504.673 521.133 518.284 517.526C523.755 516.056 524.956 513.117 523.622 508.174C522.421 504.165 521.22 500.024 520.019 496.015C516.015 482.655 512.146 469.161 508.009 455.8C505.607 448.051 504.806 447.917 497.067 450.589C491.462 452.593 485.724 454.597 479.986 456.067C474.916 457.403 472.647 460.343 472.514 465.553C472.38 471.966 472.113 478.513 471.58 484.926C471.046 491.606 456.101 501.894 450.763 498.02C445.692 494.279 440.888 495.347 435.818 494.679C431.681 486.797 425.276 479.047 429.145 469.294C431.547 463.415 430.346 458.606 427.945 453.395C426.477 450.188 424.608 449.52 421.673 451.257C418.604 452.994 415.268 454.464 412.199 456.201C407.261 459.14 404.326 458.606 402.724 452.46C400.189 442.84 397.12 433.22 394.184 423.734C392.316 417.455 387.779 415.451 381.774 418.257C376.703 420.662 372.433 424.135 368.43 428.143C366.962 429.613 365.494 432.152 362.959 431.35C360.423 430.548 360.957 427.743 360.69 425.605C360.29 422.933 360.157 420.261 359.756 417.589C359.489 415.718 360.023 413.18 357.488 412.645C355.219 412.111 353.885 414.115 352.684 415.718C349.615 419.86 346.679 424.002 343.877 428.277C341.341 432.018 338.94 431.35 336.538 428.143C332.935 423.066 333.468 418.123 337.872 413.714C338.94 412.512 340.14 411.443 338.94 409.706C337.605 407.835 335.87 408.236 334.269 409.305C332.267 410.775 330.399 412.378 328.398 413.714C327.063 414.649 325.595 416.787 323.994 414.916C322.393 413.046 323.861 411.175 325.462 409.839C328.264 407.301 331.067 404.762 333.735 402.09C336.538 399.285 338.539 395.41 336.404 391.936C334.002 388.195 333.068 384.588 332.801 380.179C332.668 376.171 330.399 374.3 326.663 377.774C324.928 379.377 323.06 381.114 321.325 382.851C318.39 385.79 315.988 386.191 313.586 381.916C309.716 374.968 305.579 368.021 301.176 361.34C299.041 358.134 300.242 356.664 303.044 355.194C307.714 352.79 312.251 349.85 317.055 347.579C323.06 344.64 327.597 341.299 326.129 333.55C325.595 330.21 328.665 328.072 329.999 325.267C331.867 321.258 335.203 317.517 333.602 312.841C332.267 308.566 333.335 305.627 336.404 302.821C339.34 300.149 339.206 298.011 334.803 296.942C329.732 295.74 329.065 293.201 331.067 288.124C334.403 279.84 337.472 271.156 330.666 262.872C328.931 260.735 327.33 257.929 326.663 255.257C325.462 249.779 321.325 243.5 327.997 238.823C341.475 229.337 342.142 214.507 344.544 200.345C344.944 198.207 345.211 195.535 342.409 194.733C339.473 193.798 336.404 193.13 333.602 195.669C324.795 203.952 318.39 201.948 315.054 190.191C311.984 179.369 317.055 171.753 323.594 164.405C328.131 159.461 333.068 155.052 336.671 149.307C338.005 147.169 339.073 144.765 337.472 142.493C336.137 140.623 333.869 141.424 331.867 141.959C325.595 143.562 319.324 145.032 313.052 146.501C308.915 147.57 306.647 146.368 305.446 141.692C301.176 124.857 296.639 108.156 291.968 91.4557C290.901 87.5811 290.901 81.9696 285.163 82.2368C280.226 82.504 273.554 80.7672 272.086 89.0508C271.685 91.5893 268.75 92.2573 266.348 92.9253C261.811 93.9942 254.472 92.1237 257.007 101.343C257.14 101.61 256.74 102.411 256.473 102.545C250.869 104.148 253.671 107.756 254.338 110.962C255.005 114.035 255.539 117.108 251.669 118.979C242.328 123.655 224.047 119.246 218.176 110.829C212.438 102.411 204.565 101.61 197.359 108.557C196.425 109.493 195.357 110.294 194.423 111.363C190.82 115.772 187.751 114.97 184.415 110.695C177.343 101.61 170.004 92.7917 162.664 83.8401C160.796 81.5688 159.195 79.1639 156.259 78.2286C150.121 76.3582 147.719 73.018 148.52 66.0705C149.053 61.6615 150.388 54.5803 146.251 52.309C138.778 48.3008 141.447 45.2279 145.05 40.8189C149.587 35.2074 147.719 29.4624 144.65 23.9845C141.848 19.0411 138.912 15.1665 131.839 15.4337C126.769 15.5673 122.365 16.3689 118.095 18.9075C115.56 20.3771 113.024 20.7779 110.622 19.0411C105.552 15.4337 100.481 15.5673 95.0098 18.2394C92.0741 19.7091 88.6047 20.3771 85.4021 20.7779C80.3313 21.446 75.5275 21.0452 73.5259 15.0329C72.9921 13.5632 71.9246 11.4255 70.4567 12.0935C63.7847 15.1665 58.8474 10.6239 53.1094 9.02059C47.9052 7.68453 42.8345 6.08126 38.8313 2.34028C36.6962 0.336188 34.5612 -0.599056 31.6255 0.6034C30.0242 1.27143 27.7557 1.80586 26.4213 1.13783C19.8827 -2.06873 16.5467 2.07307 13.3441 6.48208C9.87462 11.2919 5.47107 14.8993 0 16.9034C0 17.8386 0 18.6402 0 19.5755C3.86978 22.2476 2.80226 26.2558 2.13505 29.8632C0.533763 39.082 0.800644 39.4828 9.34085 36.5435C13.0772 35.2074 17.0804 34.4058 20.4164 35.7418C31.0917 40.0172 41.767 44.5599 52.1753 49.6369C55.9117 51.5074 55.6448 55.7828 54.7107 59.2566C53.9101 62.4631 50.7075 62.5967 48.0387 61.3943C44.1689 59.791 43.2348 61.7951 42.0338 65.0016C39.365 72.2164 36.4293 79.2975 28.8232 83.4393C17.6142 89.5852 16.947 101.743 26.8216 109.893C31.7589 114.035 36.6962 112.833 38.1641 106.42C39.0981 102.545 39.365 98.5368 39.6319 94.5286C40.2991 85.7106 44.8361 82.2368 53.5097 84.6417C60.1818 86.5122 66.4535 86.6458 73.1255 85.1762C84.8683 82.504 87.6706 84.5081 90.8732 95.5974C94.2092 107.221 107.153 113.634 118.495 109.225C128.37 105.484 131.439 106.42 135.309 116.574C137.311 121.918 140.113 125.792 145.717 127.663C150.788 129.4 152.523 132.874 149.854 138.218C147.852 142.226 147.452 146.769 148.253 151.311C148.786 154.518 150.121 157.858 153.59 158.392C168.536 160.396 183.481 162.534 198.56 163.336C204.031 163.603 209.369 163.336 214.84 164.805C230.986 169.482 238.058 182.041 233.254 197.94C232.454 200.478 231.52 203.017 230.319 205.422C227.25 212.102 226.316 219.183 227.783 226.264C229.918 235.884 230.185 245.103 226.049 254.322C224.18 258.463 222.713 263.541 226.182 267.682C230.185 272.359 231.653 277.703 232.721 283.448C233.788 288.926 235.79 294.003 239.793 298.278C242.328 300.95 243.396 304.023 241.528 308.031C236.19 318.987 237.925 329.141 247.533 336.757C257.941 345.04 259.142 355.328 256.473 367.353C254.738 375.235 256.873 382.183 263.679 387.527C269.951 392.471 276.356 397.28 283.828 400.353C287.965 401.957 291.968 403.961 295.705 406.232C302.51 410.24 303.711 415.05 299.975 421.864C297.706 426.006 295.438 430.014 293.169 434.156C287.031 445.111 288.499 450.055 299.975 455.934C308.248 460.209 316.655 464.484 323.594 470.764C328.798 475.44 330.666 481.586 329.599 488.266C328.531 494.011 322.927 494.412 318.523 495.08C311.718 496.149 309.449 491.206 307.581 485.861C305.713 480.651 298.64 475.841 295.438 477.578C290.234 480.384 290.234 485.461 291.435 490.404C292.102 493.21 293.036 496.015 294.504 498.42C299.174 506.036 304.111 513.384 309.049 520.733C310.65 523.137 313.052 524.741 315.321 526.611C322.393 532.624 331.067 536.899 334.269 547.187C336.137 553.199 340.407 559.478 345.478 563.086C350.549 566.56 350.682 569.766 349.081 574.041C346.679 580.722 343.21 587.001 339.473 593.014C336.004 598.625 332.668 604.37 325.595 606.641C322.259 607.71 320.258 610.783 319.724 614.257C318.923 619.067 316.255 622.808 313.052 626.282C306.914 632.828 307.181 635.634 313.452 641.913C316.655 645.12 320.391 645.387 324.528 644.986C326.663 644.719 329.065 644.185 329.732 647.391C330.132 649.529 330.933 651.4 333.468 651.132C336.271 650.865 336.538 648.327 337.071 646.189C337.739 642.982 338.005 639.509 341.208 637.371C344.677 635.1 345.478 632.16 344.677 628.152C343.877 624.277 343.477 618.933 348.681 618.399C353.885 617.998 353.218 623.209 353.084 626.95C353.084 627.35 353.218 627.885 353.218 628.286C353.751 631.759 355.353 631.893 357.621 629.755C360.957 626.682 361.091 622.674 359.89 618.666C358.956 615.727 357.488 612.921 356.153 610.115C351.083 599.694 352.284 597.423 363.493 595.686C367.496 595.018 369.764 596.755 371.366 600.228C372.433 602.633 374.168 605.038 376.97 603.168C379.372 601.564 380.173 598.491 379.239 595.418C378.705 593.949 375.903 593.548 377.771 590.609C384.176 594.483 390.581 598.491 397.12 602.099C402.19 604.905 405.526 608.245 404.726 614.658C404.192 619.334 407.395 622.674 411.398 624.411C415.401 626.148 419.137 624.01 423.007 622.808C428.078 623.877 431.014 626.95 432.482 631.893C435.15 640.711 440.088 647.659 451.564 649.663C444.091 652.335 445.425 656.076 448.094 660.218C448.761 661.153 449.162 662.222 449.562 663.157C450.229 665.161 452.364 667.165 449.829 669.036C447.427 670.772 445.158 669.57 443.157 668.1C441.155 666.631 439.954 663.825 436.351 663.959C436.485 665.161 436.351 666.363 436.752 667.165C438.887 671.841 442.49 675.582 445.692 679.59C448.094 682.53 450.096 685.469 448.228 689.21C446.493 692.817 443.157 693.085 439.687 692.951C434.75 692.817 429.946 692.817 425.009 692.817C423.541 692.817 421.806 692.283 421.272 694.421C420.872 696.158 422.874 699.231 419.538 699.097C417.002 699.097 417.67 696.024 417.536 694.154C417.403 692.684 417.269 691.348 415.401 691.481C413.666 691.615 413.399 693.085 413.533 694.421C413.8 696.158 413.8 698.429 414.867 699.498C422.874 707.113 427.01 718.203 438.62 722.745C452.898 728.357 458.102 727.689 466.375 714.996C474.515 702.437 475.049 702.304 487.459 710.587C488.26 711.122 488.927 711.522 489.728 712.057C493.064 714.595 494.531 717.935 493.197 722.077C491.863 726.219 491.062 730.227 492.263 734.503C492.797 736.24 492.797 738.778 490.128 738.244C483.856 737.041 479.186 741.851 473.448 741.851C467.71 741.851 469.445 745.458 471.847 747.062C478.118 750.936 481.454 756.414 483.589 763.228C484.79 767.103 490.528 770.576 488.126 774.184C485.324 778.325 478.919 776.989 473.848 777.524C473.448 777.524 473.047 777.257 472.514 777.123C467.977 775.787 468.11 778.325 469.044 781.398C470.379 785.273 473.181 788.212 476.65 790.35C478.785 791.686 480.654 793.289 476.917 794.893C472.247 797.03 473.848 799.836 475.583 803.043C478.652 808.788 479.986 814.399 476.517 820.679C474.515 824.286 478.252 834.307 481.855 834.039C487.593 833.772 493.064 830.966 499.202 831.501C500.937 831.634 503.339 828.027 506.675 828.561C508.676 828.829 510.144 827.359 510.411 825.488C511.078 821.079 514.414 818.007 515.615 814.399C517.35 809.055 520.152 808.788 524.289 808.788C528.292 808.788 532.829 808.253 535.631 811.46C543.104 820.144 547.241 830.566 546.573 842.056C546.306 846.999 546.306 851.675 546.974 856.619C547.374 859.825 548.842 861.161 552.178 862.364C558.316 864.501 563.654 869.178 570.86 866.639C571.26 866.506 572.194 867.174 572.461 867.708C575.663 875.324 581.134 875.724 587.807 872.785C589.274 872.117 591.276 872.785 593.144 872.651C596.08 872.518 600.75 875.056 599.816 868.376C599.683 867.04 602.085 866.105 603.553 866.372C607.689 867.307 614.628 862.765 614.628 872.384C614.628 874.656 617.964 877.595 620.9 877.595C624.903 877.729 623.035 874.121 623.302 871.983C623.569 869.846 624.903 869.579 626.638 869.846C628.773 870.113 630.641 869.579 632.376 868.643C634.244 867.708 636.112 866.773 637.98 868.376C640.115 870.247 639.315 872.384 638.514 874.522C638.114 875.591 637.713 876.66 638.514 877.729C641.316 878.797 642.784 874.388 646.254 876.259C644.252 880 634.644 884.81 647.455 886.547C644.385 889.352 634.778 886.012 640.783 895.498C637.447 895.632 634.111 894.429 632.242 897.502C629.974 901.377 635.178 902.312 635.712 905.251C633.844 907.79 628.106 907.255 629.44 911.798C630.641 915.94 635.045 915.673 638.514 915.539C643.184 915.272 647.188 917.009 651.191 918.879C653.593 920.082 657.996 920.883 657.596 917.81C656.795 910.729 661.066 915.005 663.201 915.138C663.601 912.065 663.868 909.527 661.466 907.924C659.998 906.988 658.797 905.786 660.799 904.316C662.266 903.247 663.734 904.049 664.935 905.118C666.403 906.454 666.136 908.458 666.403 910.061C666.67 911.397 666.67 912.867 668.405 913.001C670.14 913.134 670.406 911.665 670.673 910.328C670.94 908.324 671.207 905.919 674.143 906.855C676.945 907.79 677.612 910.061 676.144 912.733C675.611 913.802 674.543 915.005 676.011 916.742C679.347 915.138 682.95 912.466 686.553 916.608C687.353 917.41 689.222 915.673 690.423 914.737C691.623 913.802 692.024 911.397 694.559 912.199C694.693 914.871 692.424 915.94 691.09 917.677C689.755 919.28 688.287 920.75 689.088 923.021C690.022 925.426 692.291 924.892 694.292 925.025C696.294 925.159 698.296 924.892 700.03 926.228C701.098 927.163 702.966 927.964 701.765 929.835C700.831 931.171 699.363 930.503 698.162 929.835C696.694 929.033 695.76 926.762 693.759 928.633C692.824 929.434 693.091 930.637 693.492 931.705C694.292 933.71 695.76 934.11 697.762 933.977C706.836 933.042 715.776 931.438 723.916 927.163C725.517 926.361 728.053 924.624 727.919 924.09C725.918 917.677 732.59 914.47 732.857 908.992C732.99 907.389 733.257 906.053 734.858 905.118C742.731 900.976 742.731 898.571 736.593 892.292Z"/>
    </mask>
    <path d="M736.593 892.292C727.519 882.939 721.781 872.652 726.051 858.756C728.987 849.27 729.921 839.384 727.386 829.229C725.918 823.618 725.25 817.205 726.318 811.46C727.386 805.047 726.585 800.237 722.048 795.828C719.646 793.557 717.778 790.751 715.643 788.079C705.368 775.787 705.368 775.787 715.91 763.896C719.913 759.353 715.509 756.548 713.641 753.475C711.506 749.867 708.971 751.471 706.569 753.608C703.099 756.815 699.63 759.888 696.16 762.961C694.292 764.564 691.49 766.568 689.622 764.698C685.485 760.556 679.747 754.677 680.948 749.734C682.549 742.519 679.213 738.377 676.411 733.3C674.81 730.494 672.808 727.822 669.072 728.758C665.736 729.559 661.866 729.826 661.066 734.503C660.665 737.576 658.263 738.778 655.594 739.58C645.586 743.053 635.445 746.527 625.437 750.268C621.3 751.871 619.432 750.803 618.231 746.661C615.696 737.709 612.493 728.891 609.824 719.94C608.223 714.729 603.152 713.526 599.683 710.454C597.281 714.195 592.877 712.858 589.541 714.194C575.663 719.539 575.53 719.271 568.858 706.312C568.591 705.911 568.458 705.51 568.191 705.109C566.589 700.834 563.921 700.166 559.784 702.036C554.58 704.441 549.109 706.445 543.638 708.316C539.768 709.652 538.033 707.113 536.699 703.907C535.231 700.299 538.033 699.765 540.302 698.963C545.239 697.226 546.974 693.886 546.707 688.676C546.173 678.922 545.639 669.169 544.438 659.416C543.905 655.408 542.704 650.197 547.507 648.059C554.847 644.853 553.913 640.31 550.977 634.699C549.643 632.16 548.708 629.355 547.641 626.682C541.369 611.585 541.369 611.852 524.823 613.188C518.284 613.723 515.749 615.593 518.017 622.14C519.085 625.213 518.551 628.018 515.215 629.221C512.146 630.29 509.21 630.29 506.941 627.083C504.006 622.941 502.538 618.265 502.671 613.322C502.671 609.447 501.47 607.577 497.2 608.111C491.996 608.913 491.863 605.973 493.064 602.099C493.998 599.293 495.599 597.69 498.401 596.621C505.74 593.815 513.213 591.811 520.953 591.009C526.29 590.475 527.224 588.605 525.49 583.661C519.885 567.495 514.681 551.195 509.21 534.895C504.673 521.267 504.673 521.133 518.284 517.526C523.755 516.056 524.956 513.117 523.622 508.174C522.421 504.165 521.22 500.024 520.019 496.015C516.015 482.655 512.146 469.161 508.009 455.8C505.607 448.051 504.806 447.917 497.067 450.589C491.462 452.593 485.724 454.597 479.986 456.067C474.916 457.403 472.647 460.343 472.514 465.553C472.38 471.966 472.113 478.513 471.58 484.926C471.046 491.606 456.101 501.894 450.763 498.02C445.692 494.279 440.888 495.347 435.818 494.679C431.681 486.797 425.276 479.047 429.145 469.294C431.547 463.415 430.346 458.606 427.945 453.395C426.477 450.188 424.608 449.52 421.673 451.257C418.604 452.994 415.268 454.464 412.199 456.201C407.261 459.14 404.326 458.606 402.724 452.46C400.189 442.84 397.12 433.22 394.184 423.734C392.316 417.455 387.779 415.451 381.774 418.257C376.703 420.662 372.433 424.135 368.43 428.143C366.962 429.613 365.494 432.152 362.959 431.35C360.423 430.548 360.957 427.743 360.69 425.605C360.29 422.933 360.157 420.261 359.756 417.589C359.489 415.718 360.023 413.18 357.488 412.645C355.219 412.111 353.885 414.115 352.684 415.718C349.615 419.86 346.679 424.002 343.877 428.277C341.341 432.018 338.94 431.35 336.538 428.143C332.935 423.066 333.468 418.123 337.872 413.714C338.94 412.512 340.14 411.443 338.94 409.706C337.605 407.835 335.87 408.236 334.269 409.305C332.267 410.775 330.399 412.378 328.398 413.714C327.063 414.649 325.595 416.787 323.994 414.916C322.393 413.046 323.861 411.175 325.462 409.839C328.264 407.301 331.067 404.762 333.735 402.09C336.538 399.285 338.539 395.41 336.404 391.936C334.002 388.195 333.068 384.588 332.801 380.179C332.668 376.171 330.399 374.3 326.663 377.774C324.928 379.377 323.06 381.114 321.325 382.851C318.39 385.79 315.988 386.191 313.586 381.916C309.716 374.968 305.579 368.021 301.176 361.34C299.041 358.134 300.242 356.664 303.044 355.194C307.714 352.79 312.251 349.85 317.055 347.579C323.06 344.64 327.597 341.299 326.129 333.55C325.595 330.21 328.665 328.072 329.999 325.267C331.867 321.258 335.203 317.517 333.602 312.841C332.267 308.566 333.335 305.627 336.404 302.821C339.34 300.149 339.206 298.011 334.803 296.942C329.732 295.74 329.065 293.201 331.067 288.124C334.403 279.84 337.472 271.156 330.666 262.872C328.931 260.735 327.33 257.929 326.663 255.257C325.462 249.779 321.325 243.5 327.997 238.823C341.475 229.337 342.142 214.507 344.544 200.345C344.944 198.207 345.211 195.535 342.409 194.733C339.473 193.798 336.404 193.13 333.602 195.669C324.795 203.952 318.39 201.948 315.054 190.191C311.984 179.369 317.055 171.753 323.594 164.405C328.131 159.461 333.068 155.052 336.671 149.307C338.005 147.169 339.073 144.765 337.472 142.493C336.137 140.623 333.869 141.424 331.867 141.959C325.595 143.562 319.324 145.032 313.052 146.501C308.915 147.57 306.647 146.368 305.446 141.692C301.176 124.857 296.639 108.156 291.968 91.4557C290.901 87.5811 290.901 81.9696 285.163 82.2368C280.226 82.504 273.554 80.7672 272.086 89.0508C271.685 91.5893 268.75 92.2573 266.348 92.9253C261.811 93.9942 254.472 92.1237 257.007 101.343C257.14 101.61 256.74 102.411 256.473 102.545C250.869 104.148 253.671 107.756 254.338 110.962C255.005 114.035 255.539 117.108 251.669 118.979C242.328 123.655 224.047 119.246 218.176 110.829C212.438 102.411 204.565 101.61 197.359 108.557C196.425 109.493 195.357 110.294 194.423 111.363C190.82 115.772 187.751 114.97 184.415 110.695C177.343 101.61 170.004 92.7917 162.664 83.8401C160.796 81.5688 159.195 79.1639 156.259 78.2286C150.121 76.3582 147.719 73.018 148.52 66.0705C149.053 61.6615 150.388 54.5803 146.251 52.309C138.778 48.3008 141.447 45.2279 145.05 40.8189C149.587 35.2074 147.719 29.4624 144.65 23.9845C141.848 19.0411 138.912 15.1665 131.839 15.4337C126.769 15.5673 122.365 16.3689 118.095 18.9075C115.56 20.3771 113.024 20.7779 110.622 19.0411C105.552 15.4337 100.481 15.5673 95.0098 18.2394C92.0741 19.7091 88.6047 20.3771 85.4021 20.7779C80.3313 21.446 75.5275 21.0452 73.5259 15.0329C72.9921 13.5632 71.9246 11.4255 70.4567 12.0935C63.7847 15.1665 58.8474 10.6239 53.1094 9.02059C47.9052 7.68453 42.8345 6.08126 38.8313 2.34028C36.6962 0.336188 34.5612 -0.599056 31.6255 0.6034C30.0242 1.27143 27.7557 1.80586 26.4213 1.13783C19.8827 -2.06873 16.5467 2.07307 13.3441 6.48208C9.87462 11.2919 5.47107 14.8993 0 16.9034C0 17.8386 0 18.6402 0 19.5755C3.86978 22.2476 2.80226 26.2558 2.13505 29.8632C0.533763 39.082 0.800644 39.4828 9.34085 36.5435C13.0772 35.2074 17.0804 34.4058 20.4164 35.7418C31.0917 40.0172 41.767 44.5599 52.1753 49.6369C55.9117 51.5074 55.6448 55.7828 54.7107 59.2566C53.9101 62.4631 50.7075 62.5967 48.0387 61.3943C44.1689 59.791 43.2348 61.7951 42.0338 65.0016C39.365 72.2164 36.4293 79.2975 28.8232 83.4393C17.6142 89.5852 16.947 101.743 26.8216 109.893C31.7589 114.035 36.6962 112.833 38.1641 106.42C39.0981 102.545 39.365 98.5368 39.6319 94.5286C40.2991 85.7106 44.8361 82.2368 53.5097 84.6417C60.1818 86.5122 66.4535 86.6458 73.1255 85.1762C84.8683 82.504 87.6706 84.5081 90.8732 95.5974C94.2092 107.221 107.153 113.634 118.495 109.225C128.37 105.484 131.439 106.42 135.309 116.574C137.311 121.918 140.113 125.792 145.717 127.663C150.788 129.4 152.523 132.874 149.854 138.218C147.852 142.226 147.452 146.769 148.253 151.311C148.786 154.518 150.121 157.858 153.59 158.392C168.536 160.396 183.481 162.534 198.56 163.336C204.031 163.603 209.369 163.336 214.84 164.805C230.986 169.482 238.058 182.041 233.254 197.94C232.454 200.478 231.52 203.017 230.319 205.422C227.25 212.102 226.316 219.183 227.783 226.264C229.918 235.884 230.185 245.103 226.049 254.322C224.18 258.463 222.713 263.541 226.182 267.682C230.185 272.359 231.653 277.703 232.721 283.448C233.788 288.926 235.79 294.003 239.793 298.278C242.328 300.95 243.396 304.023 241.528 308.031C236.19 318.987 237.925 329.141 247.533 336.757C257.941 345.04 259.142 355.328 256.473 367.353C254.738 375.235 256.873 382.183 263.679 387.527C269.951 392.471 276.356 397.28 283.828 400.353C287.965 401.957 291.968 403.961 295.705 406.232C302.51 410.24 303.711 415.05 299.975 421.864C297.706 426.006 295.438 430.014 293.169 434.156C287.031 445.111 288.499 450.055 299.975 455.934C308.248 460.209 316.655 464.484 323.594 470.764C328.798 475.44 330.666 481.586 329.599 488.266C328.531 494.011 322.927 494.412 318.523 495.08C311.718 496.149 309.449 491.206 307.581 485.861C305.713 480.651 298.64 475.841 295.438 477.578C290.234 480.384 290.234 485.461 291.435 490.404C292.102 493.21 293.036 496.015 294.504 498.42C299.174 506.036 304.111 513.384 309.049 520.733C310.65 523.137 313.052 524.741 315.321 526.611C322.393 532.624 331.067 536.899 334.269 547.187C336.137 553.199 340.407 559.478 345.478 563.086C350.549 566.56 350.682 569.766 349.081 574.041C346.679 580.722 343.21 587.001 339.473 593.014C336.004 598.625 332.668 604.37 325.595 606.641C322.259 607.71 320.258 610.783 319.724 614.257C318.923 619.067 316.255 622.808 313.052 626.282C306.914 632.828 307.181 635.634 313.452 641.913C316.655 645.12 320.391 645.387 324.528 644.986C326.663 644.719 329.065 644.185 329.732 647.391C330.132 649.529 330.933 651.4 333.468 651.132C336.271 650.865 336.538 648.327 337.071 646.189C337.739 642.982 338.005 639.509 341.208 637.371C344.677 635.1 345.478 632.16 344.677 628.152C343.877 624.277 343.477 618.933 348.681 618.399C353.885 617.998 353.218 623.209 353.084 626.95C353.084 627.35 353.218 627.885 353.218 628.286C353.751 631.759 355.353 631.893 357.621 629.755C360.957 626.682 361.091 622.674 359.89 618.666C358.956 615.727 357.488 612.921 356.153 610.115C351.083 599.694 352.284 597.423 363.493 595.686C367.496 595.018 369.764 596.755 371.366 600.228C372.433 602.633 374.168 605.038 376.97 603.168C379.372 601.564 380.173 598.491 379.239 595.418C378.705 593.949 375.903 593.548 377.771 590.609C384.176 594.483 390.581 598.491 397.12 602.099C402.19 604.905 405.526 608.245 404.726 614.658C404.192 619.334 407.395 622.674 411.398 624.411C415.401 626.148 419.137 624.01 423.007 622.808C428.078 623.877 431.014 626.95 432.482 631.893C435.15 640.711 440.088 647.659 451.564 649.663C444.091 652.335 445.425 656.076 448.094 660.218C448.761 661.153 449.162 662.222 449.562 663.157C450.229 665.161 452.364 667.165 449.829 669.036C447.427 670.772 445.158 669.57 443.157 668.1C441.155 666.631 439.954 663.825 436.351 663.959C436.485 665.161 436.351 666.363 436.752 667.165C438.887 671.841 442.49 675.582 445.692 679.59C448.094 682.53 450.096 685.469 448.228 689.21C446.493 692.817 443.157 693.085 439.687 692.951C434.75 692.817 429.946 692.817 425.009 692.817C423.541 692.817 421.806 692.283 421.272 694.421C420.872 696.158 422.874 699.231 419.538 699.097C417.002 699.097 417.67 696.024 417.536 694.154C417.403 692.684 417.269 691.348 415.401 691.481C413.666 691.615 413.399 693.085 413.533 694.421C413.8 696.158 413.8 698.429 414.867 699.498C422.874 707.113 427.01 718.203 438.62 722.745C452.898 728.357 458.102 727.689 466.375 714.996C474.515 702.437 475.049 702.304 487.459 710.587C488.26 711.122 488.927 711.522 489.728 712.057C493.064 714.595 494.531 717.935 493.197 722.077C491.863 726.219 491.062 730.227 492.263 734.503C492.797 736.24 492.797 738.778 490.128 738.244C483.856 737.041 479.186 741.851 473.448 741.851C467.71 741.851 469.445 745.458 471.847 747.062C478.118 750.936 481.454 756.414 483.589 763.228C484.79 767.103 490.528 770.576 488.126 774.184C485.324 778.325 478.919 776.989 473.848 777.524C473.448 777.524 473.047 777.257 472.514 777.123C467.977 775.787 468.11 778.325 469.044 781.398C470.379 785.273 473.181 788.212 476.65 790.35C478.785 791.686 480.654 793.289 476.917 794.893C472.247 797.03 473.848 799.836 475.583 803.043C478.652 808.788 479.986 814.399 476.517 820.679C474.515 824.286 478.252 834.307 481.855 834.039C487.593 833.772 493.064 830.966 499.202 831.501C500.937 831.634 503.339 828.027 506.675 828.561C508.676 828.829 510.144 827.359 510.411 825.488C511.078 821.079 514.414 818.007 515.615 814.399C517.35 809.055 520.152 808.788 524.289 808.788C528.292 808.788 532.829 808.253 535.631 811.46C543.104 820.144 547.241 830.566 546.573 842.056C546.306 846.999 546.306 851.675 546.974 856.619C547.374 859.825 548.842 861.161 552.178 862.364C558.316 864.501 563.654 869.178 570.86 866.639C571.26 866.506 572.194 867.174 572.461 867.708C575.663 875.324 581.134 875.724 587.807 872.785C589.274 872.117 591.276 872.785 593.144 872.651C596.08 872.518 600.75 875.056 599.816 868.376C599.683 867.04 602.085 866.105 603.553 866.372C607.689 867.307 614.628 862.765 614.628 872.384C614.628 874.656 617.964 877.595 620.9 877.595C624.903 877.729 623.035 874.121 623.302 871.983C623.569 869.846 624.903 869.579 626.638 869.846C628.773 870.113 630.641 869.579 632.376 868.643C634.244 867.708 636.112 866.773 637.98 868.376C640.115 870.247 639.315 872.384 638.514 874.522C638.114 875.591 637.713 876.66 638.514 877.729C641.316 878.797 642.784 874.388 646.254 876.259C644.252 880 634.644 884.81 647.455 886.547C644.385 889.352 634.778 886.012 640.783 895.498C637.447 895.632 634.111 894.429 632.242 897.502C629.974 901.377 635.178 902.312 635.712 905.251C633.844 907.79 628.106 907.255 629.44 911.798C630.641 915.94 635.045 915.673 638.514 915.539C643.184 915.272 647.188 917.009 651.191 918.879C653.593 920.082 657.996 920.883 657.596 917.81C656.795 910.729 661.066 915.005 663.201 915.138C663.601 912.065 663.868 909.527 661.466 907.924C659.998 906.988 658.797 905.786 660.799 904.316C662.266 903.247 663.734 904.049 664.935 905.118C666.403 906.454 666.136 908.458 666.403 910.061C666.67 911.397 666.67 912.867 668.405 913.001C670.14 913.134 670.406 911.665 670.673 910.328C670.94 908.324 671.207 905.919 674.143 906.855C676.945 907.79 677.612 910.061 676.144 912.733C675.611 913.802 674.543 915.005 676.011 916.742C679.347 915.138 682.95 912.466 686.553 916.608C687.353 917.41 689.222 915.673 690.423 914.737C691.623 913.802 692.024 911.397 694.559 912.199C694.693 914.871 692.424 915.94 691.09 917.677C689.755 919.28 688.287 920.75 689.088 923.021C690.022 925.426 692.291 924.892 694.292 925.025C696.294 925.159 698.296 924.892 700.03 926.228C701.098 927.163 702.966 927.964 701.765 929.835C700.831 931.171 699.363 930.503 698.162 929.835C696.694 929.033 695.76 926.762 693.759 928.633C692.824 929.434 693.091 930.637 693.492 931.705C694.292 933.71 695.76 934.11 697.762 933.977C706.836 933.042 715.776 931.438 723.916 927.163C725.517 926.361 728.053 924.624 727.919 924.09C725.918 917.677 732.59 914.47 732.857 908.992C732.99 907.389 733.257 906.053 734.858 905.118C742.731 900.976 742.731 898.571 736.593 892.292Z" stroke="#6AB0DF" stroke-width="4" stroke-dasharray="5 5" mask="url(#path-2-inside-1_0_1)"/>
    <defs>
        <clipPath id="clip0_0_1">
            <rect width="660" height="831" fill="white" transform="translate(41 51)"/>
        </clipPath>
    </defs>
</svg>
