<svg width="52" height="52" viewBox="0 0 52 52" fill="none" xmlns="http://www.w3.org/2000/svg">
    <path d="M26.6249 0C26.898 0.0707768 27.1711 0.141554 27.4442 0.222441C29.5989 0.859433 31.1669 2.90185 31.1871 5.14649C31.1972 6.18792 31.1972 7.23946 31.1163 8.27078C31.0354 9.3021 30.5296 10.1818 29.8215 11.0007C30.1047 11.0715 30.3374 11.1221 30.5599 11.1827C32.8461 11.8096 34.3129 13.2757 34.9401 15.5608C35.021 15.8641 35.1222 16.0259 35.4661 16.1068C37.8029 16.6629 39.4214 18.6446 39.4922 21.051C39.5225 22.1228 39.5832 23.2249 39.4214 24.2764C39.0168 26.875 36.8418 28.6343 34.1612 28.6747C33.0484 28.6949 31.9357 28.6646 30.8229 28.6949C30.0137 28.7051 29.2853 28.9781 28.5873 29.4735C28.7694 29.6049 28.911 29.706 29.0628 29.8173C30.4082 30.8587 31.1568 32.2136 31.1972 33.9223C31.2174 34.6604 31.2073 35.4086 31.1972 36.1467C31.1871 36.7129 30.8432 37.0769 30.3475 37.0769C29.8619 37.0769 29.4978 36.7028 29.4775 36.1467C29.4573 35.4187 29.4876 34.7009 29.4674 33.9729C29.4269 32.0215 27.859 30.5048 25.9168 30.5048C23.9745 30.5048 22.4167 32.0316 22.3661 33.9729C22.3459 34.6806 22.356 35.3884 22.3661 36.0962C22.3863 38.2195 23.843 39.7159 25.9774 39.7665C26.7361 39.7867 27.4948 39.8069 28.2535 39.7665C30.7723 39.635 32.8056 40.4843 34.2623 42.6784C35.3245 41.0404 36.8115 40.1001 38.7639 39.7867C37.4893 38.4217 37.2566 36.8242 37.3578 35.1255C37.4083 34.3268 37.3679 33.4977 37.55 32.7191C38.1468 30.1914 40.5341 28.5635 43.1642 28.7859C45.6325 28.9983 47.6759 31.0407 47.8782 33.5482C47.949 34.3874 47.9288 35.2266 47.9187 36.076C47.9187 36.6826 47.5646 37.0567 47.0588 37.0567C46.553 37.0567 46.2091 36.6826 46.199 36.076C46.1788 35.2873 46.2192 34.4885 46.1585 33.6999C46.0472 32.2035 44.9649 30.9497 43.5284 30.5958C42.0717 30.2217 40.5139 30.7677 39.7147 32.0316C39.4012 32.527 39.1685 33.1337 39.1078 33.71C39.0066 34.6402 39.0066 35.6007 39.0977 36.5309C39.2697 38.4318 40.7668 39.7159 42.7394 39.7564C43.6802 39.7766 44.631 39.7564 45.5718 39.7564C48.7482 39.7665 51.0849 41.6977 51.7121 44.8118C51.7323 44.8927 51.7728 44.9736 51.793 45.0444C51.793 47.2688 51.793 49.4932 51.793 51.7176C51.4188 51.7176 51.0546 51.7176 50.6803 51.7176C50.215 51.475 50.0531 51.0806 50.0632 50.5549C50.0835 49.018 50.0734 47.4912 50.0734 45.9544C50.0632 43.3356 48.2424 41.4954 45.6224 41.4853C43.5992 41.4752 41.5761 41.4752 39.5529 41.4853C36.9329 41.5055 35.112 43.3356 35.1019 45.9544C35.0918 47.4912 35.0817 49.018 35.112 50.5549C35.1222 51.0806 34.9603 51.4649 34.495 51.7176C34.323 51.7176 34.1612 51.7176 33.9892 51.7176C33.5239 51.4649 33.362 51.0806 33.3721 50.5549C33.3924 49.018 33.3822 47.4912 33.3822 45.9544C33.3721 43.3356 31.5513 41.5055 28.9313 41.4853C26.9081 41.4752 24.8849 41.4752 22.8618 41.4853C20.2418 41.5055 18.4209 43.3457 18.4108 45.9544C18.4007 47.4912 18.3906 49.018 18.4209 50.5549C18.431 51.0806 18.2692 51.4649 17.8039 51.7176C17.6319 51.7176 17.47 51.7176 17.2981 51.7176C16.8327 51.4649 16.6709 51.0806 16.681 50.5549C16.7012 49.018 16.6911 47.4912 16.6911 45.9544C16.681 43.3356 14.8602 41.5055 12.2402 41.4853C10.217 41.4752 8.19382 41.4752 6.17066 41.4853C3.56077 41.5055 1.72981 43.3457 1.71969 45.9544C1.70957 47.4912 1.69946 49.018 1.72981 50.5549C1.73993 51.0806 1.57807 51.4649 1.11274 51.7176C0.738455 51.7176 0.374286 51.7176 0 51.7176C0 49.4932 0 47.2688 0 45.0444C0.0303475 44.9635 0.0708133 44.8927 0.0910449 44.8118C0.586721 42.274 2.10409 40.6562 4.57236 39.9282C4.78479 39.8676 5.00734 39.8271 5.25012 39.7665C4.09691 38.1083 3.8339 37.2893 3.88448 35.4996C3.8946 35.1255 3.92494 34.7615 3.91483 34.3874C3.81367 31.0508 6.23135 28.6343 9.55946 28.7455C9.79212 28.7556 10.0855 28.6444 10.2575 28.4927C11.0465 27.8052 11.9367 27.3199 12.9584 27.0671C13.1506 27.0165 13.3428 26.9862 13.6159 26.9255C12.6144 25.8335 12.2199 24.5798 12.1997 23.1845C12.1896 22.5778 12.2402 21.9711 12.2199 21.3645C12.1795 19.7568 12.7561 18.402 13.9194 17.2999C14.6578 16.6022 15.5581 16.1978 16.5596 15.9652C16.5191 15.8136 16.509 15.672 16.4585 15.5507C15.9021 13.8925 14.3139 12.6994 12.5639 12.6792C10.4395 12.6488 8.31521 12.6589 6.19089 12.6691C3.59112 12.6792 1.75004 14.5295 1.73992 17.1381C1.72981 18.6851 1.72981 20.2422 1.73992 21.7892C1.73992 22.2947 1.63876 22.7194 1.11274 22.8609C0.586718 23.0126 0.242784 22.7194 0.0101195 22.2745C0.0101195 20.2523 0.0101195 18.2301 0.0101195 16.2079C0.040467 16.1371 0.0809266 16.0562 0.101158 15.9855C0.495676 13.8824 1.66912 12.3657 3.60124 11.476C4.11715 11.2434 4.67352 11.112 5.27035 10.9199C4.28911 9.87842 3.91483 8.61455 3.88448 7.22935C3.87436 6.64291 3.92495 6.04636 3.90471 5.45993C3.85413 3.8725 4.39027 2.52774 5.52325 1.41554C6.36286 0.657213 7.40479 0.252774 8.51753 0C8.99297 0 9.4583 0 9.93374 0C10.045 0.0404439 10.1462 0.0808878 10.2575 0.111221C12.4222 0.636991 13.8283 1.97164 14.324 4.13539C14.5263 5.00493 14.4454 5.94525 14.4859 6.84513C14.5466 8.36178 14.1925 9.74698 13.1809 10.9199C13.1708 10.9401 13.191 10.9805 13.191 11.0109C13.2315 11.0311 13.2821 11.0614 13.3225 11.0614C15.9527 11.567 17.6015 13.1139 18.2995 15.6922C18.34 15.8439 18.5524 16.0259 18.7143 16.0764C20.9499 16.7236 22.3661 18.1593 22.6999 20.4747C22.8618 21.5768 22.8314 22.7295 22.7505 23.8518C22.5988 26.2885 20.6262 28.3512 18.1984 28.5938C16.9137 28.7253 15.6087 28.6646 14.3139 28.6848C13.4338 28.6949 12.6347 28.9376 11.876 29.4836C12.048 29.615 12.1997 29.7162 12.3413 29.8274C13.4743 30.6969 14.2229 31.8192 14.3948 33.2348C14.5061 34.1852 14.4758 35.1457 14.4859 36.1063C14.496 36.6927 14.1217 37.0871 13.6159 37.0769C13.1101 37.0668 12.7763 36.6826 12.7662 36.0861C12.7561 35.3783 12.7864 34.6705 12.7561 33.9628C12.6853 32.072 11.178 30.5554 9.33691 30.5048C7.38455 30.4543 5.8166 31.8395 5.66486 33.7909C5.60417 34.529 5.63452 35.2772 5.63452 36.0153C5.65475 38.2903 7.14178 39.7665 9.41784 39.7867C10.5306 39.7968 11.6433 39.7766 12.7561 39.8069C13.9902 39.8474 15.113 40.2619 16.0538 41.0404C16.6203 41.5056 17.0958 42.0718 17.6218 42.6076C18.6232 41.0607 20.1002 40.1305 22.0222 39.7968C21.2837 38.9576 20.7981 38.0678 20.7071 37.0365C20.6262 36.1467 20.697 35.2469 20.6363 34.3672C20.4137 31.3238 23.054 28.5534 26.3012 28.7859C26.5136 28.8062 26.7867 28.6848 26.9587 28.5332C27.8185 27.7951 28.7795 27.2693 29.9024 27.057C30.0238 27.0367 30.1351 26.9862 30.307 26.9356C29.2853 25.7931 28.9009 24.4888 28.9313 23.0328C28.9414 22.4464 28.9313 21.8498 28.9414 21.2634C28.9717 19.1603 29.9226 17.5931 31.7536 16.5719C32.2189 16.3191 32.7348 16.1674 33.2305 15.9753C32.8967 14.2059 31.1669 12.76 29.2853 12.7297C27.4341 12.6994 25.5728 12.7398 23.7216 12.7095C22.5684 12.6994 21.4354 12.7398 20.4036 13.3667C19.9889 13.6195 19.4831 13.4072 19.2707 13.0128C19.0582 12.6084 19.1796 12.1433 19.5944 11.8703C19.7663 11.7591 19.9383 11.6478 20.1305 11.5872C20.7273 11.3647 21.3242 11.1726 21.9716 10.9502C21.0106 9.87842 20.6059 8.59433 20.6262 7.15857C20.6363 6.48113 20.6262 5.81381 20.6464 5.13637C20.6869 3.46806 21.4051 2.13342 22.6999 1.09199C23.4384 0.505549 24.3185 0.242663 25.2086 0C25.6841 0 26.1494 0 26.6249 0ZM5.65475 6.32947C5.66487 6.8148 5.6244 7.31023 5.66486 7.79556C5.82672 9.56498 7.26316 10.9199 9.05367 11.0007C10.7734 11.0816 12.4121 9.82787 12.6549 8.09889C12.7965 7.08779 12.7864 6.04636 12.7257 5.02515C12.6144 3.14451 11.0364 1.71887 9.17506 1.71887C7.33398 1.72898 5.80649 3.14451 5.65475 5.01504C5.6244 5.44981 5.65475 5.8947 5.65475 6.32947ZM29.5079 6.39014C29.4978 6.39014 29.4775 6.39014 29.4674 6.39014C29.4674 5.9857 29.4775 5.58126 29.4674 5.17682C29.4168 3.26584 27.8489 1.73909 25.937 1.72898C24.0049 1.71887 22.4167 3.25573 22.3661 5.18693C22.3459 5.96547 22.3459 6.73391 22.3661 7.51245C22.4066 9.36276 23.7722 10.8086 25.6436 11.0007C27.3532 11.1726 29.0122 9.95931 29.3764 8.2C29.4978 7.60345 29.4674 6.98668 29.5079 6.39014ZM37.8332 22.3149C37.813 22.3149 37.7927 22.3149 37.7725 22.3149C37.7725 21.9105 37.7826 21.506 37.7725 21.1016C37.6916 19.1603 36.1236 17.674 34.1713 17.6942C32.2695 17.7144 30.7117 19.2614 30.6813 21.1724C30.6712 21.9509 30.6712 22.7194 30.6813 23.4979C30.7218 25.2875 32.0571 26.7132 33.888 26.9457C35.5673 27.148 37.2465 26.0155 37.6511 24.327C37.7927 23.6698 37.7725 22.9822 37.8332 22.3149ZM21.1016 22.3149C21.0915 22.3149 21.0713 22.3149 21.0612 22.3149C21.0612 21.9105 21.0713 21.506 21.0612 21.1016C20.9903 19.221 19.4224 17.7043 17.5408 17.6942C15.6391 17.6841 14.061 19.1401 13.97 21.0308C13.9295 21.8903 13.9295 22.7497 13.97 23.6091C14.0509 25.4291 15.4469 26.8143 17.3183 26.966C19.0076 27.0974 20.6464 25.8538 20.9701 24.1248C21.0814 23.5282 21.0612 22.9115 21.1016 22.3149Z" fill="#6BB2E2"/>
    <path d="M51.8133 22.3453C51.5806 22.7902 51.2367 23.0733 50.7107 22.9317C50.1847 22.7801 50.0734 22.3554 50.0835 21.86C50.0936 20.313 50.0936 18.766 50.0835 17.219C50.0734 14.6104 48.2323 12.7601 45.6427 12.75C43.6701 12.7399 41.6975 12.7095 39.735 12.7702C39.0168 12.7904 38.2884 12.9926 37.5803 13.1746C37.0543 13.3162 36.5789 13.1949 36.3867 12.7399C36.1844 12.2849 36.3766 11.7995 36.8925 11.5872C37.4691 11.3547 38.0659 11.1929 38.683 10.9806C38.6121 10.8896 38.5413 10.7783 38.4705 10.6873C37.9142 9.96946 37.4893 9.1707 37.4488 8.26071C37.3881 7.00695 37.3173 5.73296 37.4589 4.48931C37.7118 2.29523 39.4113 0.586478 41.5761 0.121373C41.6874 0.101151 41.7885 0.0505966 41.8998 0.0202637C42.3752 0.0202637 42.8406 0.0202637 43.316 0.0202637C43.3969 0.0505966 43.4678 0.0910405 43.5487 0.111262C45.7438 0.525812 47.4939 2.11324 47.7973 4.29721C47.9895 5.68241 47.8782 7.11817 47.7872 8.52359C47.7265 9.47402 47.1904 10.2829 46.543 11.0513C46.6947 11.0918 46.7857 11.1221 46.8768 11.1423C49.2338 11.6479 50.7916 13.0634 51.5503 15.3485C51.6515 15.6619 51.7223 15.9855 51.8133 16.309C51.8133 18.3009 51.8133 20.3231 51.8133 22.3453ZM46.2496 6.35984C46.2294 6.35984 46.199 6.35984 46.1788 6.35984C46.1788 5.88463 46.2091 5.41952 46.1687 4.94431C46.0169 3.17489 44.5603 1.78968 42.79 1.71891C41.0096 1.64813 39.4113 2.88167 39.1685 4.65109C39.0269 5.64197 39.0471 6.66317 39.0977 7.67427C39.1888 9.4538 40.5949 10.8289 42.3854 10.9907C44.0545 11.1423 45.7034 9.96946 46.0776 8.26071C46.2193 7.65405 46.199 6.99684 46.2496 6.35984Z" fill="#6BB2E2"/>
</svg>
