<svg width="19" height="19" viewBox="0 0 19 19" fill="none" xmlns="http://www.w3.org/2000/svg">
    <path d="M3.89572 0C4.11716 0.225542 4.37961 0.422378 4.55595 0.676626C5.34329 1.80023 6.07323 2.96075 6.65964 4.20738C6.9795 4.89221 6.94669 5.02343 6.38079 5.52783C5.98301 5.88459 5.58524 6.23726 5.18746 6.58992C5.09315 6.67194 5.08084 6.75395 5.11365 6.87698C5.65495 8.70592 6.68014 10.215 8.13181 11.437C9.1242 12.2736 10.2314 12.9051 11.4903 13.2537C11.6134 13.2865 11.6913 13.2783 11.7774 13.1839C12.0972 12.819 12.4253 12.4622 12.7411 12.0972C13.3398 11.4042 13.4505 11.3673 14.2706 11.7651C15.5255 12.372 16.7065 13.1142 17.8383 13.9262C18.0434 14.0738 18.191 14.2953 18.3673 14.4798C18.3673 14.5618 18.3673 14.6438 18.3673 14.7258C18.1295 15.0211 17.9203 15.345 17.6538 15.6116C16.5999 16.6614 15.4722 17.6169 14.1845 18.3755C14.0615 18.3755 13.9385 18.3755 13.8155 18.3755C13.6432 18.3427 13.471 18.3058 13.2988 18.273C11.884 17.9859 10.58 17.42 9.34564 16.686C6.71295 15.1236 4.51904 13.0691 2.7147 10.6005C1.66491 9.1652 0.803749 7.62332 0.303456 5.9051C0.180434 5.45811 0.102519 5.00293 0 4.55185C0 4.42882 0 4.3058 0 4.18278C0.114821 3.99414 0.21324 3.7891 0.352666 3.61277C0.984183 2.80902 1.6116 2.00527 2.26772 1.22613C2.66549 0.75454 3.10428 0.311658 3.64968 0C3.73169 0 3.81371 0 3.89572 0Z" fill="#6BB3E3"/>
</svg>
