<svg width="16" height="21" viewBox="0 0 16 21" fill="none" xmlns="http://www.w3.org/2000/svg">
    <path d="M7.96958 0C8.24433 0 8.51498 0 8.78973 0C9.00707 0.0287053 9.22031 0.0492091 9.43765 0.0820152C11.6685 0.418278 13.4359 1.51728 14.6866 3.37903C16.003 5.33919 16.2941 7.48799 15.6585 9.76391C15.2361 11.2812 14.5513 12.6837 13.7722 14.041C12.4312 16.3743 10.8196 18.519 9.06859 20.5612C8.92096 20.7335 8.72002 20.8565 8.54369 21C8.43297 21 8.32635 21 8.21563 21C8.0475 20.8647 7.85476 20.754 7.71944 20.594C5.95201 18.5395 4.32811 16.3784 2.97895 14.0246C2.20391 12.6755 1.52729 11.273 1.10081 9.76801C0.608715 8.02929 0.649724 6.30697 1.38376 4.65847C2.53607 2.06678 4.53314 0.528998 7.34217 0.0820152C7.5513 0.0492091 7.76044 0.0287053 7.96958 0ZM8.37966 11.4329C10.4792 11.437 12.1975 9.71881 12.2016 7.61101C12.2057 5.50732 10.4998 3.7891 8.39196 3.7768C6.28827 3.7645 4.55775 5.49502 4.56185 7.60691C4.56185 9.71471 6.27597 11.4288 8.37966 11.4329Z" fill="#6BB3E3"/>
</svg>
