<svg width="52" height="52" viewBox="0 0 52 52" fill="none" xmlns="http://www.w3.org/2000/svg">
    <path d="M37.3474 0C37.9341 0.242663 38.005 0.727991 38.005 1.28409C37.9948 9.3021 38.005 17.3302 38.005 25.3482C38.005 31.9709 38.005 38.5936 38.005 45.2163C38.005 45.4488 38.005 45.6915 37.9645 45.924C37.8836 46.3487 37.57 46.561 37.1755 46.5812C36.7708 46.5914 36.4471 46.3891 36.346 45.9746C36.2853 45.7117 36.2751 45.4387 36.2751 45.1758C36.2751 30.9497 36.2751 16.7337 36.2751 2.50752C36.2751 2.27497 36.2751 2.04242 36.2751 1.76942C29.3762 1.76942 22.5075 1.76942 15.568 1.76942C15.568 2.00197 15.568 2.23452 15.568 2.45697C15.568 16.6932 15.568 30.9396 15.568 45.1758C15.568 45.4387 15.5579 45.7218 15.4972 45.9746C15.3961 46.3891 15.0724 46.5914 14.6677 46.5812C14.2631 46.5711 13.9596 46.3487 13.8787 45.924C13.8382 45.7319 13.8382 45.5196 13.8382 45.3174C13.8382 30.6362 13.8382 15.9652 13.8281 1.28409C13.8281 0.727991 13.8989 0.232552 14.4857 0C22.1029 0 29.7302 0 37.3474 0Z" fill="#6BB2E2"/>
    <path d="M41.7981 51.7681C41.09 51.4749 40.4426 51.1412 40.0582 50.4132C39.1376 48.6943 40.3414 46.6216 42.2837 46.6115C42.6478 46.6115 42.84 46.4902 43.0525 46.207C44.3878 44.4376 47.0685 44.4073 48.4341 46.1464C48.7072 46.4902 48.9601 46.6519 49.385 46.6115C49.5974 46.5913 49.8098 46.662 50.0627 46.7025C50.0627 35.176 50.0627 23.6596 50.0627 12.0724C49.8604 12.0724 49.6682 12.0724 49.4659 12.0724C46.7043 12.0724 43.9325 12.0724 41.1709 12.0724C41.0192 12.0724 40.8675 12.0724 40.7157 12.0724C40.0986 12.0421 39.7446 11.7286 39.7446 11.2028C39.7446 10.6872 40.0986 10.3535 40.7258 10.3535C44.0843 10.3434 47.4326 10.3434 50.7911 10.3535C51.5194 10.3535 51.8027 10.7074 51.8027 11.4961C51.8027 15.7225 51.8027 19.9488 51.8027 24.1853C51.8027 32.2842 51.8027 40.3932 51.8027 48.4921C51.8027 50.4435 51.4284 51.0199 49.6783 51.7681C47.0583 51.7681 44.4282 51.7681 41.7981 51.7681ZM45.7939 50.0492C46.2288 50.0492 46.6739 50.0492 47.1089 50.0492C47.817 50.0492 48.5251 50.0593 49.2332 50.0391C49.6176 50.029 49.9616 49.8369 50.0122 49.4426C50.0526 49.1797 49.9919 48.7853 49.82 48.6337C49.6075 48.4517 49.1928 48.3405 48.9197 48.4112C47.9485 48.664 47.7664 48.6033 47.3416 47.663C47.0381 46.9856 46.5222 46.6014 45.7736 46.6115C45.0251 46.6115 44.5091 46.9957 44.2057 47.6731C43.7909 48.6135 43.5886 48.7044 42.6276 48.391C42.1319 48.2292 41.6261 48.4719 41.5047 48.9471C41.3732 49.4324 41.6464 49.8975 42.1623 50.0189C42.3241 50.0593 42.4961 50.0492 42.6681 50.0492C43.71 50.0492 44.7519 50.0492 45.7939 50.0492Z" fill="#6BB2E2"/>
    <path d="M0.0205078 41.0505C0.121666 40.1202 0.202593 39.1799 0.334099 38.2497C0.576878 36.4601 0.880353 34.6907 1.7402 33.0729C1.95263 32.6786 2.19541 32.2842 2.509 31.9607C3.75325 30.6564 5.35155 30.7878 6.42383 32.2337C7.09147 33.1235 7.47587 34.1447 7.749 35.2063C8.37618 37.6127 8.66954 40.0596 8.60885 42.5469C8.56838 44.2961 7.33425 45.8532 5.64491 46.3587C5.25039 46.4801 5.16947 46.6519 5.17958 47.026C5.19981 48.2191 5.16947 49.4122 5.19981 50.6154C5.20993 51.1412 5.03796 51.5254 4.57263 51.7681C4.40066 51.7681 4.23881 51.7681 4.06684 51.7681C3.60151 51.485 3.44977 51.0704 3.45989 50.5346C3.48012 49.3516 3.45989 48.1787 3.47001 46.9957C3.48012 46.6519 3.37896 46.5003 3.03503 46.3486C2.41796 46.0756 1.81101 45.7116 1.2951 45.287C0.546531 44.6803 0.273404 43.7703 0.0205078 42.8704C0.0205078 42.2638 0.0205078 41.6571 0.0205078 41.0505ZM1.75031 41.1718C1.75031 41.4549 1.75031 41.7481 1.75031 42.0312C1.73008 43.649 2.82259 44.8623 4.32985 44.8724C5.82699 44.8825 6.92962 43.6692 6.9195 42.0514C6.89927 40.1405 6.69696 38.2598 6.28221 36.3994C6.03943 35.3175 5.75618 34.2357 5.10877 33.3055C4.63333 32.628 4.05672 32.6078 3.61163 33.2953C3.26769 33.8211 2.99456 34.4177 2.80236 35.0142C2.13472 37.0061 1.88182 39.0788 1.75031 41.1718Z" fill="#6BB2E2"/>
    <path d="M0.0202317 10.9198C0.313591 10.4547 0.748571 10.3435 1.26448 10.3435C4.4712 10.3536 7.6678 10.3435 10.8745 10.3536C11.0768 10.3536 11.2791 10.3637 11.4713 10.4143C11.876 10.5255 12.0783 10.8187 12.0783 11.2333C12.0682 11.6478 11.8456 11.9309 11.4309 12.0219C11.2185 12.0725 10.9959 12.0624 10.7734 12.0725C7.96116 12.0725 5.13884 12.0725 2.32664 12.0725C2.14456 12.0725 1.96247 12.0725 1.72981 12.0725C1.72981 12.3253 1.72981 12.5275 1.72981 12.7196C1.72981 17.7447 1.72981 22.7598 1.72981 27.7849C1.72981 27.9164 1.71969 28.0579 1.72981 28.1894C1.76015 28.6848 1.63876 29.1095 1.11274 29.2814C0.576602 29.4532 0.263012 29.1297 0 28.7151C0.0202317 22.78 0.0202317 16.855 0.0202317 10.9198Z" fill="#6BB2E2"/>
    <path d="M12.6651 51.7681C12.2099 51.4748 12.0784 51.03 12.0987 50.5143C12.1189 50.1806 12.0987 49.8369 12.0987 49.5032C12.1088 48.6033 12.3819 48.3202 13.2721 48.3202C15.9224 48.3202 18.5627 48.3202 21.213 48.3202C26.3721 48.3202 31.5312 48.3202 36.6902 48.3202C36.8723 48.3202 37.0645 48.3101 37.2466 48.3404C37.6816 48.4112 37.9446 48.6741 37.9648 49.119C37.9952 49.5639 37.7726 49.8672 37.3478 49.9784C37.1454 50.029 36.9128 50.0391 36.7004 50.0391C29.2956 50.0391 21.9009 50.0391 14.4961 50.0391C14.2938 50.0391 14.0915 50.0391 13.8487 50.0391C13.7981 50.6862 13.9296 51.3737 13.262 51.758C13.0698 51.7681 12.8675 51.7681 12.6651 51.7681Z" fill="#6BB2E2"/>
    <path d="M20.7473 37.9565C20.0999 37.9565 19.5031 37.9565 18.8962 37.9565C18.623 37.9565 18.36 37.9666 18.0869 37.9363C17.6013 37.8857 17.308 37.5622 17.2979 37.1072C17.2979 36.6522 17.571 36.3388 18.0667 36.2579C18.2285 36.2275 18.4005 36.2275 18.5724 36.2275C23.4786 36.2275 28.3747 36.2275 33.2809 36.2275C33.4023 36.2275 33.5135 36.2275 33.6349 36.2376C34.2115 36.2983 34.5453 36.632 34.5251 37.1274C34.5049 37.6026 34.1812 37.9262 33.6147 37.9464C32.9774 37.9666 32.33 37.9565 31.6927 37.9565C31.5106 37.9565 31.3285 37.9565 31.0756 37.9565C31.0756 38.1891 31.0756 38.3609 31.0756 38.5429C31.0756 40.8887 31.0756 43.2243 31.0756 45.5701C31.0756 46.1868 30.7519 46.5609 30.2461 46.5812C29.7302 46.6014 29.3762 46.2071 29.3458 45.5701C29.3458 45.4487 29.3458 45.3375 29.3458 45.2162C29.3458 43.012 29.3458 40.8078 29.3458 38.5935C29.3458 38.4115 29.3458 38.2295 29.3458 37.997C27.0394 37.997 24.7633 37.997 22.4569 37.997C22.4569 38.5834 22.4569 39.1597 22.4569 39.7259C22.4569 41.6672 22.4569 43.5984 22.4569 45.5397C22.4569 46.1767 22.1029 46.5812 21.587 46.5812C21.0913 46.5812 20.7473 46.1868 20.7372 45.5903C20.7372 45.4589 20.7372 45.3173 20.7372 45.1859C20.7372 42.9817 20.7372 40.7775 20.7372 38.5632C20.7473 38.3913 20.7473 38.2093 20.7473 37.9565Z" fill="#6BB2E2"/>
    <path d="M41.4652 39.6956C41.4652 38.8867 41.4551 38.0779 41.4652 37.269C41.4753 36.5612 41.7788 36.2478 42.4768 36.2276C43.5187 36.2073 44.5708 36.2073 45.6127 36.2276C46.3107 36.2377 46.6344 36.5713 46.6344 37.269C46.6445 38.8665 46.6445 40.4742 46.6344 42.0717C46.6344 42.7997 46.3006 43.1232 45.5823 43.1334C44.5505 43.1536 43.5288 43.1536 42.497 43.1334C41.7687 43.1232 41.4652 42.8098 41.4551 42.0616C41.4551 41.2831 41.4652 40.4944 41.4652 39.6956ZM43.2152 41.374C43.8019 41.374 44.3381 41.374 44.8742 41.374C44.8742 40.2214 44.8742 39.1193 44.8742 37.9869C44.3077 37.9869 43.7716 37.9869 43.2152 37.9869C43.2152 39.1193 43.2152 40.2315 43.2152 41.374Z" fill="#6BB2E2"/>
    <path d="M32.8154 29.3723C32.8154 30.161 32.8256 30.9598 32.8154 31.7484C32.8053 32.4663 32.512 32.7696 31.8039 32.7797C30.7619 32.7898 29.7099 32.7898 28.668 32.7797C27.97 32.7696 27.6463 32.4562 27.6463 31.7484C27.6361 30.1509 27.6361 28.5432 27.6463 26.9457C27.6463 26.2076 27.97 25.8942 28.6983 25.884C29.7301 25.8739 30.7518 25.8739 31.7836 25.884C32.512 25.8942 32.8154 26.1975 32.8256 26.9457C32.8256 27.7546 32.8154 28.5635 32.8154 29.3723ZM29.3862 31.0204C29.9527 31.0204 30.4989 31.0204 31.0452 31.0204C31.0452 29.8678 31.0452 28.7556 31.0452 27.6535C30.4686 27.6535 29.9223 27.6535 29.3862 27.6535C29.3862 28.796 29.3862 29.8981 29.3862 31.0204Z" fill="#6BB2E2"/>
    <path d="M19.0182 29.3016C19.0182 28.4927 19.0081 27.6838 19.0182 26.8749C19.0283 26.2076 19.3419 25.8942 20.0196 25.884C21.0818 25.8739 22.144 25.8739 23.2061 25.884C23.8434 25.8942 24.1772 26.2177 24.1874 26.8547C24.1975 28.5028 24.1975 30.161 24.1874 31.8091C24.1772 32.4258 23.8535 32.7595 23.2567 32.7696C22.1642 32.7898 21.0616 32.7898 19.9691 32.7696C19.352 32.7595 19.0384 32.4461 19.0283 31.8293C19.0081 30.9901 19.0182 30.1509 19.0182 29.3016ZM22.4474 27.6332C21.8607 27.6332 21.3246 27.6332 20.7783 27.6332C20.7783 28.7758 20.7783 29.888 20.7783 31.0103C21.3549 31.0103 21.8911 31.0103 22.4474 31.0103C22.4474 29.8678 22.4474 28.7657 22.4474 27.6332Z" fill="#6BB2E2"/>
    <path d="M10.3685 18.9581C10.3685 19.7669 10.3786 20.5758 10.3685 21.3847C10.3584 22.1127 10.0448 22.4261 9.31649 22.4362C8.28467 22.4463 7.26297 22.4463 6.23116 22.4362C5.53317 22.4261 5.19934 22.1026 5.18923 21.4049C5.17911 19.7872 5.17911 18.1694 5.18923 16.5516C5.19934 15.854 5.52305 15.5405 6.23116 15.5405C7.27309 15.5304 8.32514 15.5304 9.36707 15.5405C10.0549 15.5507 10.3483 15.854 10.3685 16.5314C10.3786 17.3403 10.3685 18.1492 10.3685 18.9581ZM6.94938 17.2897C6.94938 18.4323 6.94938 19.5445 6.94938 20.6769C7.52598 20.6769 8.06212 20.6769 8.60838 20.6769C8.60838 19.5243 8.60838 18.4121 8.60838 17.2897C8.04189 17.2897 7.50575 17.2897 6.94938 17.2897Z" fill="#6BB2E2"/>
    <path d="M19.0182 18.9884C19.0182 18.1795 19.0081 17.3706 19.0182 16.5617C19.0283 15.854 19.3216 15.5507 20.0399 15.5405C21.0818 15.5304 22.1338 15.5304 23.1758 15.5405C23.8738 15.5507 24.1874 15.8742 24.1874 16.582C24.1975 18.1795 24.1975 19.7871 24.1874 21.3847C24.1874 22.1127 23.8535 22.4362 23.1252 22.4362C22.0934 22.4463 21.0717 22.4463 20.0399 22.4362C19.3318 22.4261 19.0182 22.1127 19.0182 21.415C19.0081 20.6061 19.0182 19.7973 19.0182 18.9884ZM22.4373 20.6971C22.4373 19.5445 22.4373 18.4222 22.4373 17.2998C21.8607 17.2998 21.3246 17.2998 20.7884 17.2998C20.7884 18.4525 20.7884 19.5647 20.7884 20.6971C21.3448 20.6971 21.8607 20.6971 22.4373 20.6971Z" fill="#6BB2E2"/>
    <path d="M32.8154 18.9883C32.8154 19.7972 32.8256 20.6061 32.8154 21.4149C32.8053 22.1126 32.4917 22.426 31.7836 22.4361C30.7417 22.4463 29.6897 22.4463 28.6477 22.4361C27.9801 22.426 27.6463 22.0924 27.6463 21.4352C27.6361 19.7972 27.6361 18.1693 27.6463 16.5313C27.6463 15.8842 27.97 15.5607 28.6073 15.5506C29.6897 15.5303 30.7619 15.5303 31.8443 15.5506C32.5221 15.5607 32.8053 15.8741 32.8154 16.5718C32.8256 17.3705 32.8154 18.1794 32.8154 18.9883ZM31.0553 20.6971C31.0553 19.5444 31.0553 18.4221 31.0553 17.2998C30.4787 17.2998 29.9426 17.2998 29.4064 17.2998C29.4064 18.4524 29.4064 19.5646 29.4064 20.6971C29.9628 20.6971 30.4787 20.6971 31.0553 20.6971Z" fill="#6BB2E2"/>
    <path d="M41.4645 18.9783C41.4645 18.1896 41.4543 17.3909 41.4645 16.6022C41.4746 15.8236 41.7578 15.5405 42.5468 15.5405C43.5584 15.5304 44.57 15.5304 45.5816 15.5405C46.3201 15.5507 46.6336 15.8641 46.6438 16.582C46.6539 18.1795 46.6539 19.7871 46.6438 21.3847C46.6438 22.1026 46.2998 22.4261 45.5816 22.4362C44.5498 22.4463 43.5281 22.4463 42.4963 22.4362C41.7983 22.4261 41.4847 22.1127 41.4746 21.4049C41.4543 20.596 41.4645 19.7872 41.4645 18.9783ZM44.8836 20.6971C44.8836 19.5344 44.8836 18.4222 44.8836 17.2998C44.307 17.2998 43.7709 17.2998 43.2347 17.2998C43.2347 18.4525 43.2347 19.5647 43.2347 20.6971C43.7911 20.6971 44.307 20.6971 44.8836 20.6971Z" fill="#6BB2E2"/>
    <path d="M41.4645 29.3218C41.4645 28.5129 41.4543 27.704 41.4645 26.8951C41.4746 26.1975 41.7882 25.8942 42.5064 25.884C43.5382 25.8739 44.5599 25.8739 45.5917 25.884C46.3099 25.8942 46.6438 26.2177 46.6438 26.9457C46.6539 28.5432 46.6539 30.1509 46.6438 31.7484C46.6336 32.4562 46.3099 32.7696 45.6221 32.7797C44.5801 32.7898 43.5281 32.7898 42.4862 32.7797C41.778 32.7696 41.4847 32.4764 41.4746 31.7484C41.4543 30.9395 41.4645 30.1307 41.4645 29.3218ZM43.2246 27.6332C43.2246 28.7859 43.2246 29.8981 43.2246 31.0103C43.8012 31.0103 44.3475 31.0103 44.8836 31.0103C44.8836 29.8678 44.8836 28.7657 44.8836 27.6332C44.3272 27.6332 43.8012 27.6332 43.2246 27.6332Z" fill="#6BB2E2"/>
    <path d="M24.1976 8.61461C24.1976 9.40326 24.2077 10.202 24.1976 10.9907C24.1875 11.749 23.884 12.0625 23.1152 12.0726C22.1037 12.0827 21.0921 12.0827 20.0805 12.0726C19.3117 12.0625 19.0284 11.7692 19.0183 10.9806C19.0082 9.39315 19.0082 7.81584 19.0183 6.22842C19.0183 5.50043 19.3319 5.17687 20.0603 5.16676C21.0921 5.15665 22.1138 5.15665 23.1456 5.16676C23.8638 5.17687 24.1875 5.51054 24.1875 6.23853C24.1976 7.0373 24.1976 7.82595 24.1976 8.61461ZM20.7684 10.3234C21.3551 10.3234 21.8811 10.3234 22.4375 10.3234C22.4375 9.18082 22.4375 8.06861 22.4375 6.93618C21.8609 6.93618 21.3247 6.93618 20.7684 6.93618C20.7684 8.06861 20.7684 9.17071 20.7684 10.3234Z" fill="#6BB2E2"/>
    <path d="M32.8154 8.62461C32.8154 9.41327 32.8256 10.212 32.8154 11.0007C32.8053 11.759 32.5322 12.0623 31.7937 12.0725C30.7518 12.0927 29.6998 12.0927 28.6578 12.0725C27.9598 12.0623 27.6463 11.7388 27.6463 11.031C27.6361 9.43349 27.6361 7.82584 27.6463 6.22831C27.6463 5.51043 27.9801 5.17677 28.7084 5.17677C29.7402 5.16666 30.7619 5.16666 31.7937 5.17677C32.4917 5.18688 32.8154 5.51043 32.8154 6.19798C32.8256 7.00686 32.8154 7.81573 32.8154 8.62461ZM29.3862 10.3131C29.9527 10.3131 30.4989 10.3131 31.0452 10.3131C31.0452 9.17061 31.0452 8.04829 31.0452 6.93608C30.4686 6.93608 29.9223 6.93608 29.3862 6.93608C29.3862 8.07862 29.3862 9.18072 29.3862 10.3131Z" fill="#6BB2E2"/>
    <path d="M8.64912 27.6333C8.04217 27.6333 7.51614 27.6333 6.91931 27.6333C6.91931 27.9366 6.93954 28.2197 6.91931 28.5028C6.87885 28.9882 6.56526 29.3016 6.12016 29.3218C5.68518 29.3421 5.28055 29.0691 5.24008 28.5938C5.1895 27.9467 5.1895 27.2794 5.24008 26.6323C5.27043 26.1773 5.61437 25.9144 6.06958 25.9043C7.21267 25.8841 8.36587 25.8841 9.50896 25.9043C10.0653 25.9144 10.3688 26.2582 10.3688 26.875C10.3789 28.5231 10.3789 30.1712 10.3688 31.8294C10.3688 32.4259 10.0451 32.7697 9.53931 32.7798C9.0234 32.7899 8.65923 32.4461 8.64912 31.8294C8.62889 30.6666 8.639 29.5038 8.639 28.3411C8.64912 28.1186 8.64912 27.8962 8.64912 27.6333Z" fill="#6BB2E2"/>
    <path d="M26.7564 42.284C26.7564 42.7592 26.3619 43.1434 25.8864 43.1232C25.4312 43.103 25.0771 42.739 25.0771 42.2739C25.0771 41.7785 25.4514 41.4347 25.9471 41.4448C26.4226 41.4549 26.7665 41.8088 26.7564 42.284Z" fill="#6BB2E2"/>
</svg>
