<svg width="52" height="44" viewBox="0 0 52 44" fill="none" xmlns="http://www.w3.org/2000/svg">
    <path d="M0.121094 14.7823C0.343642 14.3577 0.707812 14.2464 1.17314 14.2464C3.63129 14.2566 6.09955 14.2464 8.5577 14.2566C8.91175 14.2566 9.12418 14.1656 9.33661 13.8622C11.9263 10.0403 17.4394 10.0605 20.0189 13.8825C20.201 14.1554 20.3831 14.2566 20.7068 14.2566C23.2863 14.2464 25.8659 14.2464 28.4454 14.2464C28.6174 14.2464 28.7792 14.2464 28.9512 14.2566C29.366 14.297 29.5986 14.5599 29.6189 14.9542C29.6391 15.3283 29.4469 15.6114 29.0726 15.7125C28.8804 15.7631 28.6781 15.7631 28.4758 15.7631C26.1491 15.7631 23.8225 15.7631 21.4958 15.7631C21.3138 15.7631 21.1317 15.7631 20.899 15.7631C21.1721 16.9562 21.2429 18.1189 20.7169 19.1705C20.0999 20.404 19.3715 21.5668 18.6735 22.7599C18.5724 22.9318 18.4409 23.0834 18.279 23.316C18.8657 23.3665 19.3816 23.407 19.8874 23.4474C22.2545 23.6092 24.6317 23.7609 26.9989 23.9024C27.1607 23.9125 27.3934 23.8721 27.4945 23.771C30.1348 21.1522 32.775 18.5133 35.5265 15.7631C35.1117 15.7631 34.8184 15.7631 34.5351 15.7631C33.9282 15.7631 33.3212 15.7631 32.7143 15.7631C32.0871 15.753 31.7432 15.4699 31.7533 14.9744C31.7634 14.4891 32.077 14.2464 32.7042 14.2464C36.0222 14.2464 39.3503 14.2464 42.6683 14.2464C45.3995 14.2464 48.1308 14.2566 50.8621 14.2363C51.3274 14.2363 51.6916 14.3476 51.9141 14.7722C51.9141 24.1046 51.9141 33.4472 51.9141 42.7796C51.6916 43.1739 51.3679 43.3155 50.9127 43.3155C34.3126 43.3054 17.7125 43.3054 1.12256 43.3155C0.667349 43.3155 0.343642 43.1841 0.121094 42.7897C0.121094 33.4573 0.121094 24.1249 0.121094 14.7823ZM27.6159 25.8842C27.535 25.9347 27.4945 25.9651 27.4541 25.9954C25.178 28.2704 22.8918 30.5453 20.636 32.8304C20.5146 32.9517 20.4741 33.2551 20.5146 33.4472C20.7776 34.4381 21.0811 35.4188 21.3745 36.3996C21.9106 38.1892 22.4467 39.9789 22.9829 41.7887C24.2777 41.7887 25.5624 41.7887 26.837 41.7786C26.9483 41.7786 27.0798 41.6876 27.1809 41.6067C28.7287 40.4035 30.2663 39.2003 31.8039 37.9971C33.0077 37.0568 34.2114 36.1064 35.4557 35.1458C32.8357 32.0519 30.2258 28.968 27.6159 25.8842ZM25.8254 25.4292C25.7141 25.3989 25.6534 25.3786 25.5928 25.3786C22.8514 25.1865 20.11 24.9944 17.3686 24.8225C17.2067 24.8124 16.9943 24.9439 16.8729 25.0753C16.3368 25.6314 15.831 26.228 15.2948 26.7841C14.8497 27.2492 14.4552 27.239 14 26.7739C13.6055 26.3594 13.1604 25.9752 12.8468 25.5C12.3916 24.8023 11.8049 24.6304 11.0158 24.681C10.065 24.7416 9.10395 24.6911 8.15306 24.6911C8.15306 27.1885 8.15306 29.6252 8.15306 32.0519C8.2441 32.062 8.29468 32.0822 8.33515 32.0822C11.8555 32.0822 15.3758 32.0923 18.9062 32.0721C19.1085 32.0721 19.3513 31.9305 19.4929 31.7789C21.506 29.787 23.5089 27.785 25.5017 25.7831C25.6231 25.682 25.7141 25.5606 25.8254 25.4292ZM50.3968 41.7989C50.3968 39.8778 50.3968 38.0275 50.3866 36.1771C50.3866 36.0457 50.2956 35.894 50.2046 35.7929C49.4459 34.9335 48.6568 34.1044 47.9083 33.2349C47.6857 32.972 47.4834 32.9416 47.1698 33.0326C44.7926 33.7303 42.4154 34.3976 40.0382 35.0852C39.1985 35.3278 38.369 35.5604 37.5092 35.803C37.5497 35.985 37.5699 36.1165 37.6002 36.2479C38.0555 37.9365 38.5309 39.625 38.9659 41.3135C39.067 41.718 39.2592 41.8191 39.6538 41.8191C43.0426 41.7989 46.4314 41.809 49.8202 41.809C49.9921 41.7989 50.1641 41.7989 50.3968 41.7989ZM50.3664 15.7833C49.9112 15.7833 49.4965 15.7631 49.0817 15.7934C48.8996 15.8035 48.6973 15.8945 48.5658 16.0159C46.1886 18.2908 43.8316 20.5658 41.4645 22.8408C41.333 22.9621 41.161 23.0329 40.9992 23.134C44.1755 26.7234 47.2406 30.1813 50.3765 33.7202C50.3664 27.694 50.3664 21.7791 50.3664 15.7833ZM8.44642 33.5989C8.48689 33.7404 8.497 33.8314 8.52735 33.9022C9.36696 36.4198 10.2167 38.9374 11.0361 41.4652C11.1473 41.7989 11.3395 41.7989 11.6026 41.7989C14.7081 41.7989 17.8036 41.7989 20.9091 41.7989C21.0507 41.7989 21.2025 41.7786 21.3643 41.7685C21.3542 41.6674 21.3542 41.5966 21.334 41.536C20.5753 39.0082 19.8166 36.4805 19.0782 33.9426C18.9972 33.6494 18.8556 33.5887 18.5825 33.5887C17.4495 33.5989 16.3267 33.5887 15.1937 33.5887C12.9581 33.5989 10.7326 33.5989 8.44642 33.5989ZM46.4921 31.6474C44.2767 29.15 42.1321 26.7234 39.9673 24.2765C37.7924 26.3796 35.658 28.4321 33.5134 30.4948C34.5655 31.7384 35.5973 32.972 36.6494 34.1752C36.7404 34.2864 37.0034 34.337 37.1551 34.2965C38.2578 34.0033 39.3604 33.6898 40.463 33.3764C42.4457 32.8102 44.4284 32.2339 46.4921 31.6474ZM1.66882 33.5989C1.66882 36.3591 1.66882 39.0588 1.66882 41.7584C4.29893 41.7584 6.8987 41.7584 9.53893 41.7584C8.64874 39.079 7.76866 36.4501 6.88858 33.8314C6.85824 33.7303 6.67615 33.609 6.56488 33.609C4.94634 33.5887 3.33793 33.5989 1.66882 33.5989ZM38.9659 23.134C37.5901 21.587 36.2548 20.0805 34.9904 18.6447C32.8964 20.7377 30.8429 22.7902 28.759 24.8731C29.983 26.3189 31.2475 27.8154 32.5322 29.332C34.6869 27.2492 36.8112 25.2067 38.9659 23.134ZM14.6272 25.2169C15.9018 24.0541 18.805 20.404 19.3513 18.5234C19.4626 18.1392 19.5536 17.7347 19.5536 17.3404C19.5131 14.4284 16.9842 12.2344 14.0405 12.5781C10.9046 12.9421 8.78024 16.4203 10.2369 19.2109C11.3901 21.4455 12.9682 23.3463 14.6272 25.2169ZM1.66882 32.0418C3.32781 32.0418 4.94634 32.0418 6.56488 32.0418C6.56488 29.5747 6.56488 27.148 6.56488 24.7113C4.916 24.7113 3.29746 24.7113 1.66882 24.7113C1.66882 27.1582 1.66882 29.5848 1.66882 32.0418ZM40.0584 22.0825C42.2232 19.9996 44.3576 17.937 46.5325 15.8541C46.4212 15.8136 46.3808 15.7934 46.3403 15.7934C43.5281 15.7934 40.7159 15.7934 37.9037 15.7934C37.7924 15.7934 37.6508 15.8136 37.58 15.8844C37.0236 16.3799 36.4774 16.8955 35.921 17.4213C37.3575 19.0289 38.6927 20.5456 40.0584 22.0825ZM1.67893 15.7833C1.67893 18.2908 1.67893 20.7175 1.67893 23.1441C3.22665 23.1441 4.74403 23.1441 6.30187 23.1441C5.4926 20.7276 4.70356 18.3515 3.90441 15.9855C3.87407 15.8945 3.71221 15.7934 3.61105 15.7934C2.98387 15.7732 2.34658 15.7833 1.67893 15.7833ZM29.4671 41.7786C32.249 41.7786 34.869 41.7786 37.5497 41.7786C37.0742 40.0497 36.6089 38.3409 36.1233 36.5816C33.8877 38.3207 31.7331 39.9991 29.4671 41.7786ZM5.46225 15.8035C6.27152 18.2201 7.05044 20.5759 7.83947 22.9318C7.86982 23.0329 8.01144 23.1542 8.1126 23.1542C9.01291 23.1744 9.91322 23.1643 10.9046 23.1643C10.7528 22.9318 10.6517 22.7902 10.5606 22.6386C9.97391 21.6477 9.33661 20.6669 8.81059 19.6457C8.18341 18.4425 8.07214 17.1483 8.45654 15.8035C7.43484 15.8035 6.48395 15.8035 5.46225 15.8035Z" fill="#6BB2E2"/>
    <path d="M14.6174 0C16.9542 0.0202219 18.9875 0.818989 20.697 2.42663C21.1421 2.85129 21.2028 3.3164 20.8791 3.66017C20.5554 3.99383 20.1002 3.94328 19.645 3.51862C16.7721 0.869544 12.5437 0.849322 9.64043 3.45795C9.56962 3.52873 9.49881 3.59951 9.41788 3.66017C9.04359 3.9635 8.61873 3.9635 8.33549 3.65006C8.04213 3.32651 8.01178 2.86141 8.38607 2.5783C9.18522 1.96153 9.98437 1.33465 10.8644 0.859433C12.0278 0.21233 13.2619 0.010111 14.6174 0Z" fill="#6BB2E2"/>
    <path d="M15.214 3.25576C16.094 3.26587 17.3686 3.7613 18.4409 4.75218C18.8759 5.15662 18.9265 5.58128 18.5927 5.94528C18.2791 6.28905 17.8744 6.26883 17.4293 5.88461C15.6489 4.37807 13.555 4.37807 11.7948 5.88461C11.3396 6.26883 10.9147 6.27894 10.6011 5.91494C10.3078 5.57117 10.3786 5.14651 10.7832 4.76229C11.8049 3.78153 13.1807 3.24564 15.214 3.25576Z" fill="#6BB2E2"/>
    <path d="M16.5085 7.61358C16.4984 8.31123 15.8409 8.69545 15.3553 8.33146C14.8293 7.93713 14.3842 7.91691 13.8683 8.33146C13.5648 8.58423 13.1905 8.52357 12.9174 8.22024C12.6443 7.9068 12.624 7.55291 12.8972 7.20914C13.6862 6.2486 15.5374 6.2486 16.3062 7.21925C16.4175 7.35069 16.468 7.5428 16.5085 7.61358Z" fill="#6BB2E2"/>
    <path d="M14.6582 14.2666C16.4284 14.2666 17.8447 15.6518 17.8548 17.4212C17.8649 19.2008 16.4284 20.6466 14.6582 20.6365C12.9182 20.6264 11.4717 19.1805 11.4717 17.4414C11.4717 15.6922 12.898 14.2666 14.6582 14.2666ZM16.3273 17.4414C16.3273 16.5112 15.5989 15.7832 14.6683 15.7832C13.7376 15.7832 12.9891 16.5213 12.9891 17.4414C12.9891 18.3413 13.7579 19.1199 14.6683 19.1199C15.5888 19.1199 16.3273 18.3717 16.3273 17.4414Z" fill="#6BB2E2"/>
</svg>
