<svg width="52" height="39" viewBox="0 0 52 39" fill="none" xmlns="http://www.w3.org/2000/svg">
    <path d="M0 9.98586C0.36417 8.6411 1.29483 7.903 2.57954 7.46823C3.88448 7.02335 5.15907 6.48746 6.44378 5.99203C7.0305 5.76959 7.44525 5.90103 7.62734 6.36613C7.79931 6.81102 7.56664 7.18512 6.96981 7.41767C5.54348 7.97378 4.10703 8.51977 2.68069 9.07587C1.89166 9.38931 1.51737 9.86453 1.51737 10.5521C1.51737 11.2497 1.88154 11.7148 2.68069 12.0283C9.8427 14.8897 17.1564 17.3062 24.5713 19.4396C25.4008 19.6823 26.2506 19.7227 27.07 19.4801C30.1958 18.5397 33.3114 17.5792 36.4372 16.6187C36.4878 16.6086 36.5283 16.5681 36.6395 16.5074C35.6583 16.0423 34.7074 15.5873 33.7666 15.1425C31.1264 13.8786 28.476 12.6248 25.8358 11.361C25.6436 11.27 25.3705 11.1486 25.3199 10.9868C25.239 10.7139 25.2086 10.3499 25.3402 10.1072C25.5222 9.76342 25.8965 9.71287 26.2708 9.89486C27.5353 10.4914 28.7897 11.0981 30.0541 11.6946C32.7247 12.9686 35.4155 14.2224 38.076 15.5267C38.5919 15.7795 38.9965 15.7997 39.5225 15.6076C42.7191 14.4044 45.9259 13.2315 49.1225 12.0384C49.9216 11.7351 50.2858 11.2598 50.2858 10.5622C50.2858 9.87464 49.9216 9.39943 49.1225 9.08599C41.9706 6.23469 34.6771 3.80806 27.2824 1.69486C26.3315 1.42187 25.3806 1.42187 24.45 1.71509C19.736 3.21151 15.022 4.71804 10.308 6.22458C10.2575 6.2448 10.2069 6.25491 10.1664 6.27513C9.63027 6.44702 9.24587 6.29536 9.08402 5.86058C8.92217 5.42581 9.12448 5.0416 9.6505 4.84949C10.8037 4.43494 11.967 4.02039 13.1304 3.64628C16.6608 2.53407 20.2013 1.46231 23.7317 0.339993C25.1783 -0.115001 26.6046 -0.104891 28.0512 0.31977C35.3042 2.44307 42.4662 4.82927 49.5069 7.58956C50.6803 8.04455 51.4592 8.79277 51.793 10.0061C51.793 10.3802 51.793 10.7442 51.793 11.1183C51.439 12.4732 50.5083 13.2012 49.2337 13.6561C46.7958 14.5257 44.3781 15.466 41.9503 16.3558C41.5963 16.4872 41.4547 16.6288 41.4648 17.0231C41.4951 18.2364 41.485 19.4497 41.4749 20.663C41.4648 21.3405 40.8376 21.7449 40.352 21.3809C40.1497 21.2293 39.9879 20.8855 39.9879 20.6226C39.9474 19.4598 39.9677 18.2971 39.9677 17.1242C39.8968 17.1242 39.8462 17.1141 39.7957 17.1242C38.8448 17.4073 38.8549 17.4073 38.8549 18.3982C38.8549 20.7035 38.8549 23.0189 38.8549 25.3242C38.8549 25.5062 38.8549 25.6781 38.8549 25.8702C39.7755 25.6781 39.9677 25.4455 39.9677 24.6266C39.9677 24.3232 39.9474 24.0199 39.9778 23.7166C40.0182 23.3121 40.2509 23.0695 40.6656 23.0391C41.1006 23.0088 41.4344 23.2413 41.4445 23.6559C41.4749 24.3232 41.4749 25.0108 41.3434 25.6579C41.1917 26.396 40.6454 26.9217 39.9272 27.1139C38.9763 27.3565 38.693 27.9025 38.8347 28.8226C38.9055 29.2877 38.8245 29.7629 38.865 30.2381C38.8751 30.3898 39.0168 30.592 39.1584 30.6628C40.3015 31.2189 40.9084 32.0986 40.9084 33.3827C40.9084 34.6263 40.9185 35.8801 40.9084 37.1237C40.9084 37.7809 40.6454 38.0337 39.9879 38.0337C38.7234 38.0337 37.4589 38.0337 36.1944 38.0337C35.5369 38.0337 35.2739 37.7809 35.2638 37.1237C35.2537 35.8598 35.2436 34.596 35.2638 33.3321C35.284 32.0885 35.891 31.1987 37.0239 30.6628C37.1656 30.592 37.3173 30.3898 37.3274 30.2483C37.3578 29.591 37.3375 28.9338 37.3375 28.2261C37.1049 28.3069 36.9025 28.3676 36.7002 28.4384C33.4126 29.5203 30.1249 30.6224 26.8171 31.6739C26.3315 31.8256 25.7347 31.8256 25.239 31.684C20.8083 30.4606 16.4585 28.9743 12.2199 27.2049C10.9959 26.6993 10.5407 26.0219 10.5407 24.6771C10.5407 22.1797 10.5407 19.6924 10.5407 17.195C10.5407 17.013 10.5407 16.831 10.5407 16.6389C8.84123 16.012 7.17213 15.4053 5.50301 14.7785C4.51166 14.4044 3.54054 13.9797 2.52896 13.646C1.25436 13.2214 0.364167 12.4631 0.0101134 11.1385C-2.46984e-06 10.724 0 10.3499 0 9.98586ZM37.3173 17.9432C37.0947 18.0039 36.9329 18.0443 36.771 18.0848C33.7768 19.0049 30.7926 19.9249 27.7983 20.8349C26.6249 21.1888 25.4413 21.2596 24.2679 20.9057C20.9195 19.8946 17.5813 18.8633 14.233 17.832C13.5147 17.6095 12.8066 17.3568 12.0783 17.1141C12.0581 17.2557 12.0479 17.3163 12.0479 17.3871C12.0479 19.8643 12.048 22.3415 12.0378 24.8187C12.0378 25.3242 12.3009 25.5669 12.7358 25.7489C16.9238 27.488 21.2028 28.9338 25.5627 30.1775C25.8055 30.2483 26.109 30.2786 26.3517 30.1977C29.9125 29.0248 33.4733 27.8418 37.0239 26.6386C37.1554 26.5982 37.3072 26.3859 37.3072 26.2544C37.3274 23.5143 37.3173 20.7743 37.3173 17.9432ZM36.8014 36.4463C37.6612 36.4463 38.5008 36.4463 39.3708 36.4463C39.3708 35.3139 39.391 34.2219 39.3607 33.14C39.3405 32.4828 38.7942 31.9873 38.1367 31.957C37.5095 31.9166 36.852 32.3716 36.8216 33.0187C36.7508 34.1511 36.8014 35.2936 36.8014 36.4463Z" fill="#6BB2E2"/>
</svg>
