<svg width="24" height="24" viewBox="0 0 24 24" fill="none" xmlns="http://www.w3.org/2000/svg">
    <g clip-path="url(#clip0_10_145)">
        <path d="M23.7201 0.915478C23.5116 0.747475 23.2236 0.703974 22.9716 0.802976L0.471244 9.80312C0.19374 9.91412 0.00773718 10.1796 0.000237062 10.4796C-0.00726305 10.7796 0.16374 11.0541 0.436744 11.1801L7.50035 14.4412L23.2506 1.49899L10.5004 15.8257V23.2493L15.8225 18.2827L19.9355 20.1803C20.0361 20.2253 20.1441 20.2493 20.2506 20.2493C20.3706 20.2493 20.4921 20.2193 20.6001 20.1623C20.8086 20.0528 20.9511 19.8533 20.9901 19.6223L23.9901 1.62199C24.0336 1.35648 23.9316 1.08498 23.7201 0.915478Z" fill="#6BB3E3"/>
    </g>
    <defs>
        <clipPath id="clip0_10_145">
            <rect width="24" height="24" fill="white"/>
        </clipPath>
    </defs>
</svg>
