<svg width="24" height="24" viewBox="0 0 24 24" fill="none" xmlns="http://www.w3.org/2000/svg">
    <path d="M22.7747 7.37625C22.5154 6.41234 21.7554 5.6525 20.7916 5.39294C19.0309 4.91119 11.988 4.91119 11.988 4.91119C11.988 4.91119 4.94536 4.91119 3.18466 5.37468C2.23943 5.63396 1.46091 6.41248 1.20163 7.37625C0.738281 9.13681 0.738281 12.788 0.738281 12.788C0.738281 12.788 0.738281 16.4576 1.20163 18.1997C1.46118 19.1635 2.22089 19.9233 3.1848 20.1829C4.9639 20.6648 11.9883 20.6648 11.9883 20.6648C11.9883 20.6648 19.0309 20.6648 20.7916 20.2013C21.7555 19.9419 22.5154 19.182 22.7749 18.2182C23.2381 16.4576 23.2381 12.8065 23.2381 12.8065C23.2381 12.8065 23.2567 9.13681 22.7747 7.37625V7.37625ZM9.7457 16.1611V9.4149L15.6022 12.788L9.7457 16.1611Z" fill="#6BB3E3"/>
</svg>
